<svg width="179" height="153" viewBox="0 0 179 153" fill="none" xmlns="http://www.w3.org/2000/svg">
<g filter="url(#filter0_b_1979_10618)">
<g clip-path="url(#clip0_1979_10618)">
<rect width="179" height="153" rx="24" fill="#FFF1E6"/>
<path d="M63.7716 30C62.8543 30 62.129 29.8613 61.5956 29.584C61.073 29.296 60.6996 28.8587 60.4756 28.272C60.2623 27.6747 60.1556 26.9173 60.1556 26C60.1556 25.0933 60.2623 24.3413 60.4756 23.744C60.6996 23.1467 61.073 22.7093 61.5956 22.432C62.129 22.144 62.8543 22 63.7716 22H67.1316V29.312H65.7556V22.704L66.3796 23.232H63.7716C63.185 23.232 62.7263 23.3067 62.3956 23.456C62.0756 23.5947 61.8516 23.8613 61.7236 24.256C61.5956 24.6507 61.5316 25.232 61.5316 26C61.5316 26.768 61.5903 27.3493 61.7076 27.744C61.8356 28.1387 62.065 28.4107 62.3956 28.56C62.7263 28.6987 63.185 28.768 63.7716 28.768H68.8596V30H63.7716ZM68.8596 30V28.768C68.9983 28.768 69.0836 28.8213 69.1156 28.928C69.1583 29.0347 69.1796 29.184 69.1796 29.376C69.1796 29.5573 69.1583 29.7067 69.1156 29.824C69.0836 29.9413 68.9983 30 68.8596 30ZM62.1716 20.624V19.136H63.5476V20.624H62.1716ZM64.3636 20.624V19.136H65.7396V20.624H64.3636ZM72.2254 30V28.768H73.9854V30H72.2254ZM73.9854 30V28.768C74.124 28.768 74.2094 28.8213 74.2414 28.928C74.284 29.0347 74.3054 29.184 74.3054 29.376C74.3054 29.5573 74.284 29.7067 74.2414 29.824C74.2094 29.9413 74.124 30 73.9854 30ZM69.0094 30V28.768H71.5214L70.8494 29.312V22H72.2254V30H69.0094ZM69.0094 30C68.8707 30 68.7854 29.9413 68.7534 29.824C68.7107 29.7067 68.6894 29.5573 68.6894 29.376C68.6894 29.184 68.7107 29.0347 68.7534 28.928C68.7854 28.8213 68.8707 28.768 69.0094 28.768V30ZM69.6494 32.944V31.456H71.0254V32.944H69.6494ZM71.8414 32.944V31.456H73.2174V32.944H71.8414ZM76.0481 30V18.544H77.4241V30H76.0481ZM74.1281 30V28.768H76.0481V30H74.1281ZM74.1281 30C73.9895 30 73.9041 29.9413 73.8721 29.824C73.8295 29.7067 73.8081 29.5573 73.8081 29.376C73.8081 29.184 73.8295 29.0347 73.8721 28.928C73.9041 28.8213 73.9895 28.768 74.1281 28.768V30ZM81.6581 30V28.768H83.5941V30H81.6581ZM80.2981 30V18.544H81.6581V30H80.2981ZM83.5941 30V28.768C83.7328 28.768 83.8181 28.8213 83.8501 28.928C83.8928 29.0347 83.9141 29.184 83.9141 29.376C83.9141 29.5573 83.8928 29.7067 83.8501 29.824C83.8181 29.9413 83.7328 30 83.5941 30ZM92.8606 30V28.768H94.5886V30H92.8606ZM83.7406 30V28.768H92.4286L91.5006 29.44V26.08C91.5006 25.3547 91.4153 24.784 91.2446 24.368C91.0846 23.952 90.802 23.6587 90.3966 23.488C90.002 23.3173 89.4633 23.232 88.7806 23.232C88.3326 23.232 87.89 23.264 87.4526 23.328C87.0153 23.3813 86.674 23.4613 86.4286 23.568L87.2606 22.736C87.1966 22.992 87.1326 23.3173 87.0686 23.712C87.0046 24.096 86.9513 24.512 86.9086 24.96C86.866 25.3973 86.8446 25.8347 86.8446 26.272C86.8446 26.72 86.866 27.1627 86.9086 27.6C86.9513 28.0373 86.9993 28.416 87.0526 28.736C87.106 29.0453 87.1486 29.264 87.1806 29.392L85.8846 29.76C85.842 29.6213 85.7886 29.3813 85.7246 29.04C85.6606 28.6987 85.602 28.288 85.5486 27.808C85.506 27.328 85.4846 26.816 85.4846 26.272C85.4846 25.7493 85.5113 25.2427 85.5646 24.752C85.618 24.2507 85.6766 23.7973 85.7406 23.392C85.8153 22.9867 85.8846 22.6613 85.9486 22.416C86.1833 22.32 86.5566 22.224 87.0686 22.128C87.5913 22.032 88.162 21.984 88.7806 21.984C89.6873 21.984 90.4446 22.1173 91.0526 22.384C91.6606 22.6507 92.114 23.0827 92.4126 23.68C92.7113 24.2773 92.8606 25.0773 92.8606 26.08V30H83.7406ZM83.7406 30C83.602 30 83.5166 29.9413 83.4846 29.824C83.442 29.7067 83.4206 29.5573 83.4206 29.376C83.4206 29.184 83.442 29.0347 83.4846 28.928C83.5166 28.8213 83.602 28.768 83.7406 28.768V30ZM94.5886 30V28.768C94.7273 28.768 94.8126 28.8213 94.8446 28.928C94.8873 29.0347 94.9086 29.184 94.9086 29.376C94.9086 29.5573 94.8873 29.7067 94.8446 29.824C94.8126 29.9413 94.7273 30 94.5886 30ZM96.6544 30V18.544H98.0304V30H96.6544ZM94.7344 30V28.768H96.6544V30H94.7344ZM94.7344 30C94.5957 30 94.5104 29.9413 94.4784 29.824C94.4357 29.7067 94.4144 29.5573 94.4144 29.376C94.4144 29.184 94.4357 29.0347 94.4784 28.928C94.5104 28.8213 94.5957 28.768 94.7344 28.768V30ZM100.904 30V18.544H102.264V30H100.904ZM113.062 30C111.462 30 110.257 29.7173 109.446 29.152C108.646 28.576 108.246 27.696 108.246 26.512C108.246 26.256 108.262 25.984 108.294 25.696C108.337 25.3973 108.385 25.1093 108.438 24.832C108.492 24.544 108.54 24.2987 108.582 24.096C108.625 23.8827 108.652 23.7387 108.662 23.664L109.99 23.92C109.958 24.08 109.91 24.3093 109.846 24.608C109.793 24.9067 109.74 25.2213 109.686 25.552C109.644 25.8827 109.622 26.2027 109.622 26.512C109.622 27.0453 109.734 27.4827 109.958 27.824C110.182 28.1547 110.545 28.3947 111.046 28.544C111.558 28.6933 112.236 28.768 113.078 28.768H117.734V22H119.094V30H113.062ZM111.894 22.176V20.688H113.27V22.176H111.894ZM114.086 22.176V20.688H115.462V22.176H114.086ZM123.386 30V28.768H125.322V30H123.386ZM122.026 30V18.544H123.386V30H122.026ZM125.322 30V28.768C125.461 28.768 125.546 28.8213 125.578 28.928C125.621 29.0347 125.642 29.184 125.642 29.376C125.642 29.5573 125.621 29.7067 125.578 29.824C125.546 29.9413 125.461 30 125.322 30ZM125.469 30V28.768H134.157L133.229 29.44V26.08C133.229 25.3547 133.143 24.784 132.973 24.368C132.813 23.952 132.53 23.6587 132.125 23.488C131.73 23.3173 131.191 23.232 130.509 23.232C130.061 23.232 129.618 23.264 129.181 23.328C128.743 23.3813 128.402 23.4613 128.157 23.568L128.989 22.736C128.925 22.992 128.861 23.3173 128.797 23.712C128.733 24.096 128.679 24.512 128.637 24.96C128.594 25.3973 128.573 25.8347 128.573 26.272C128.573 26.72 128.594 27.1627 128.637 27.6C128.679 28.0373 128.727 28.416 128.781 28.736C128.834 29.0453 128.877 29.264 128.909 29.392L127.613 29.76C127.57 29.6213 127.517 29.3813 127.453 29.04C127.389 28.6987 127.33 28.288 127.277 27.808C127.234 27.328 127.213 26.816 127.213 26.272C127.213 25.7493 127.239 25.2427 127.293 24.752C127.346 24.2507 127.405 23.7973 127.469 23.392C127.543 22.9867 127.613 22.6613 127.677 22.416C127.911 22.32 128.285 22.224 128.797 22.128C129.319 22.032 129.89 21.984 130.509 21.984C131.415 21.984 132.173 22.1173 132.781 22.384C133.389 22.6507 133.842 23.0827 134.141 23.68C134.439 24.2773 134.589 25.0773 134.589 26.08V30H125.469ZM125.469 30C125.33 30 125.245 29.9413 125.213 29.824C125.17 29.7067 125.149 29.5573 125.149 29.376C125.149 29.184 125.17 29.0347 125.213 28.928C125.245 28.8213 125.33 28.768 125.469 28.768V30ZM137.451 30V18.544H138.811V30H137.451ZM143.368 30V28.768H145.416V30H143.368ZM140.696 33.6C140.557 33.6 140.413 33.5893 140.264 33.568C140.104 33.5573 139.949 33.5467 139.8 33.536L139.928 32.304C140.077 32.3147 140.221 32.3253 140.36 32.336C140.488 32.3573 140.6 32.368 140.696 32.368C141.186 32.368 141.581 32.1813 141.88 31.808C142.178 31.4347 142.328 30.9173 142.328 30.256V22H143.704V30.256C143.704 30.9173 143.576 31.4987 143.32 32C143.064 32.512 142.706 32.9067 142.248 33.184C141.8 33.4613 141.282 33.6 140.696 33.6ZM145.416 30V28.768C145.554 28.768 145.64 28.8213 145.672 28.928C145.714 29.0347 145.736 29.184 145.736 29.376C145.736 29.5573 145.714 29.7067 145.672 29.824C145.64 29.9413 145.554 30 145.416 30ZM145.559 30V28.768H147.879C148.487 28.768 149.074 28.6667 149.639 28.464C150.205 28.2613 150.722 27.9893 151.191 27.648C151.671 27.3067 152.087 26.9333 152.439 26.528C152.791 26.112 153.063 25.6907 153.255 25.264C153.447 24.8267 153.543 24.4213 153.543 24.048V23.072L154.263 24.176C153.655 23.8667 153.053 23.632 152.455 23.472C151.869 23.312 151.293 23.232 150.727 23.232C150.173 23.232 149.597 23.312 148.999 23.472C148.402 23.632 147.805 23.8667 147.207 24.176L147.927 23.072V24.048C147.927 24.4213 148.023 24.8267 148.215 25.264C148.418 25.6907 148.69 26.112 149.031 26.528C149.383 26.9333 149.794 27.3067 150.263 27.648C150.733 27.9893 151.25 28.2613 151.815 28.464C152.381 28.6667 152.973 28.768 153.591 28.768H155.799V30H153.671C152.839 30 152.061 29.8667 151.335 29.6C150.61 29.3333 149.954 28.9813 149.367 28.544C148.781 28.096 148.274 27.6107 147.847 27.088C147.431 26.5547 147.111 26.0267 146.887 25.504C146.663 24.9707 146.551 24.4853 146.551 24.048V23.088C147.01 22.8427 147.479 22.64 147.959 22.48C148.439 22.32 148.914 22.2027 149.383 22.128C149.853 22.0427 150.301 22 150.727 22C151.165 22 151.618 22.0427 152.087 22.128C152.557 22.2027 153.026 22.32 153.495 22.48C153.975 22.64 154.445 22.8427 154.903 23.088V24.048C154.903 24.4853 154.791 24.9707 154.567 25.504C154.343 26.0267 154.018 26.5547 153.591 27.088C153.175 27.6107 152.674 28.096 152.087 28.544C151.501 28.9813 150.845 29.3333 150.119 29.6C149.394 29.8667 148.615 30 147.783 30H145.559ZM145.559 30C145.421 30 145.335 29.9413 145.303 29.824C145.261 29.7067 145.239 29.5573 145.239 29.376C145.239 29.184 145.261 29.0347 145.303 28.928C145.335 28.8213 145.421 28.768 145.559 28.768V30ZM155.799 30V28.768C155.938 28.768 156.023 28.8213 156.055 28.928C156.098 29.0347 156.119 29.184 156.119 29.376C156.119 29.5573 156.098 29.7067 156.055 29.824C156.023 29.9413 155.938 30 155.799 30ZM150.023 20.56V19.072H151.399V20.56H150.023ZM157.864 30V18.544H159.24V30H157.864ZM155.944 30V28.768H157.864V30H155.944ZM155.944 30C155.805 30 155.72 29.9413 155.688 29.824C155.645 29.7067 155.624 29.5573 155.624 29.376C155.624 29.184 155.645 29.0347 155.688 28.928C155.72 28.8213 155.805 28.768 155.944 28.768V30ZM162.114 30V18.544H163.474V30H162.114Z" fill="#211A13"/>
<path d="M89.2381 126C88.6648 126 88.2115 125.913 87.8781 125.74C87.5515 125.56 87.3181 125.287 87.1781 124.92C87.0448 124.547 86.9781 124.073 86.9781 123.5C86.9781 122.933 87.0448 122.463 87.1781 122.09C87.3181 121.717 87.5515 121.443 87.8781 121.27C88.2115 121.09 88.6648 121 89.2381 121H91.3381V125.57H90.4781V121.44L90.8681 121.77H89.2381C88.8715 121.77 88.5848 121.817 88.3781 121.91C88.1781 121.997 88.0381 122.163 87.9581 122.41C87.8781 122.657 87.8381 123.02 87.8381 123.5C87.8381 123.98 87.8748 124.343 87.9481 124.59C88.0281 124.837 88.1715 125.007 88.3781 125.1C88.5848 125.187 88.8715 125.23 89.2381 125.23H92.4181V126H89.2381ZM92.4181 126V125.23C92.5048 125.23 92.5581 125.263 92.5781 125.33C92.6048 125.397 92.6181 125.49 92.6181 125.61C92.6181 125.723 92.6048 125.817 92.5781 125.89C92.5581 125.963 92.5048 126 92.4181 126ZM88.2381 120.14V119.21H89.0981V120.14H88.2381ZM89.6081 120.14V119.21H90.4681V120.14H89.6081ZM94.428 126V125.23H95.528V126H94.428ZM95.528 126V125.23C95.6146 125.23 95.668 125.263 95.688 125.33C95.7146 125.397 95.728 125.49 95.728 125.61C95.728 125.723 95.7146 125.817 95.688 125.89C95.668 125.963 95.6146 126 95.528 126ZM92.418 126V125.23H93.988L93.568 125.57V121H94.428V126H92.418ZM92.418 126C92.3313 126 92.278 125.963 92.258 125.89C92.2313 125.817 92.218 125.723 92.218 125.61C92.218 125.49 92.2313 125.397 92.258 125.33C92.278 125.263 92.3313 125.23 92.418 125.23V126ZM92.818 127.84V126.91H93.678V127.84H92.818ZM94.188 127.84V126.91H95.048V127.84H94.188ZM96.7234 126V118.84H97.5834V126H96.7234ZM95.5234 126V125.23H96.7234V126H95.5234ZM95.5234 126C95.4368 126 95.3834 125.963 95.3634 125.89C95.3368 125.817 95.3234 125.723 95.3234 125.61C95.3234 125.49 95.3368 125.397 95.3634 125.33C95.3834 125.263 95.4368 125.23 95.5234 125.23V126ZM100.136 126V125.23H101.346V126H100.136ZM99.2859 126V118.84H100.136V126H99.2859ZM101.346 126V125.23C101.433 125.23 101.486 125.263 101.506 125.33C101.533 125.397 101.546 125.49 101.546 125.61C101.546 125.723 101.533 125.817 101.506 125.89C101.486 125.963 101.433 126 101.346 126ZM101.344 126V125.23H106.774L106.194 125.65V123.55C106.194 123.097 106.14 122.74 106.034 122.48C105.934 122.22 105.757 122.037 105.504 121.93C105.257 121.823 104.92 121.77 104.494 121.77C104.214 121.77 103.937 121.79 103.664 121.83C103.39 121.863 103.177 121.913 103.024 121.98L103.544 121.46C103.504 121.62 103.464 121.823 103.424 122.07C103.384 122.31 103.35 122.57 103.324 122.85C103.297 123.123 103.284 123.397 103.284 123.67C103.284 123.95 103.297 124.227 103.324 124.5C103.35 124.773 103.38 125.01 103.414 125.21C103.447 125.403 103.474 125.54 103.494 125.62L102.684 125.85C102.657 125.763 102.624 125.613 102.584 125.4C102.544 125.187 102.507 124.93 102.474 124.63C102.447 124.33 102.434 124.01 102.434 123.67C102.434 123.343 102.45 123.027 102.484 122.72C102.517 122.407 102.554 122.123 102.594 121.87C102.64 121.617 102.684 121.413 102.724 121.26C102.87 121.2 103.104 121.14 103.424 121.08C103.75 121.02 104.107 120.99 104.494 120.99C105.06 120.99 105.534 121.073 105.914 121.24C106.294 121.407 106.577 121.677 106.764 122.05C106.95 122.423 107.044 122.923 107.044 123.55V126H101.344ZM101.344 126C101.257 126 101.204 125.963 101.184 125.89C101.157 125.817 101.144 125.723 101.144 125.61C101.144 125.49 101.157 125.397 101.184 125.33C101.204 125.263 101.257 125.23 101.344 125.23V126ZM112.646 126C112.073 126 111.62 125.913 111.286 125.74C110.96 125.56 110.726 125.287 110.586 124.92C110.453 124.547 110.386 124.073 110.386 123.5C110.386 122.933 110.453 122.463 110.586 122.09C110.726 121.717 110.96 121.443 111.286 121.27C111.62 121.09 112.073 121 112.646 121H114.746V125.57H113.886V121.44L114.276 121.77H112.646C112.28 121.77 111.993 121.817 111.786 121.91C111.586 121.997 111.446 122.163 111.366 122.41C111.286 122.657 111.246 123.02 111.246 123.5C111.246 123.98 111.283 124.343 111.356 124.59C111.436 124.837 111.58 125.007 111.786 125.1C111.993 125.187 112.28 125.23 112.646 125.23H115.826V126H112.646ZM115.826 126V125.23C115.913 125.23 115.966 125.263 115.986 125.33C116.013 125.397 116.026 125.49 116.026 125.61C116.026 125.723 116.013 125.817 115.986 125.89C115.966 125.963 115.913 126 115.826 126ZM111.646 120.14V119.21H112.506V120.14H111.646ZM113.016 120.14V119.21H113.876V120.14H113.016ZM115.826 126V125.23H121.256L120.676 125.65V123.55C120.676 123.097 120.623 122.74 120.516 122.48C120.416 122.22 120.24 122.037 119.986 121.93C119.74 121.823 119.403 121.77 118.976 121.77C118.696 121.77 118.42 121.79 118.146 121.83C117.873 121.863 117.66 121.913 117.506 121.98L118.026 121.46C117.986 121.62 117.946 121.823 117.906 122.07C117.866 122.31 117.833 122.57 117.806 122.85C117.78 123.123 117.766 123.397 117.766 123.67C117.766 123.95 117.78 124.227 117.806 124.5C117.833 124.773 117.863 125.01 117.896 125.21C117.93 125.403 117.956 125.54 117.976 125.62L117.166 125.85C117.14 125.763 117.106 125.613 117.066 125.4C117.026 125.187 116.99 124.93 116.956 124.63C116.93 124.33 116.916 124.01 116.916 123.67C116.916 123.343 116.933 123.027 116.966 122.72C117 122.407 117.036 122.123 117.076 121.87C117.123 121.617 117.166 121.413 117.206 121.26C117.353 121.2 117.586 121.14 117.906 121.08C118.233 121.02 118.59 120.99 118.976 120.99C119.543 120.99 120.016 121.073 120.396 121.24C120.776 121.407 121.06 121.677 121.246 122.05C121.433 122.423 121.526 122.923 121.526 123.55V126H115.826ZM115.826 126C115.74 126 115.686 125.963 115.666 125.89C115.64 125.817 115.626 125.723 115.626 125.61C115.626 125.49 115.64 125.397 115.666 125.33C115.686 125.263 115.74 125.23 115.826 125.23V126ZM123.221 126V118.84H124.071V126H123.221ZM126.825 126V125.23H128.105V126H126.825ZM125.155 128.25C125.069 128.25 124.979 128.243 124.885 128.23C124.785 128.223 124.689 128.217 124.595 128.21L124.675 127.44C124.769 127.447 124.859 127.453 124.945 127.46C125.025 127.473 125.095 127.48 125.155 127.48C125.462 127.48 125.709 127.363 125.895 127.13C126.082 126.897 126.175 126.573 126.175 126.16V121H127.035V126.16C127.035 126.573 126.955 126.937 126.795 127.25C126.635 127.57 126.412 127.817 126.125 127.99C125.845 128.163 125.522 128.25 125.155 128.25ZM128.105 126V125.23C128.192 125.23 128.245 125.263 128.265 125.33C128.292 125.397 128.305 125.49 128.305 125.61C128.305 125.723 128.292 125.817 128.265 125.89C128.245 125.963 128.192 126 128.105 126ZM130.232 125.95C129.872 125.643 129.598 125.293 129.412 124.9C129.225 124.507 129.132 124.09 129.132 123.65C129.132 123.27 129.198 122.92 129.332 122.6C129.472 122.273 129.658 121.99 129.892 121.75C130.132 121.51 130.412 121.327 130.732 121.2C131.052 121.067 131.395 121 131.762 121C131.962 121 132.172 121.02 132.392 121.06C132.612 121.1 132.825 121.157 133.032 121.23L132.752 121.95C132.585 121.897 132.418 121.853 132.252 121.82C132.085 121.787 131.928 121.77 131.782 121.77C131.435 121.77 131.125 121.85 130.852 122.01C130.578 122.17 130.365 122.393 130.212 122.68C130.065 122.96 129.992 123.283 129.992 123.65C129.992 124.343 130.262 124.92 130.802 125.38L130.232 125.95ZM128.102 126V125.23H133.152V126H128.102ZM128.102 126C128.015 126 127.962 125.963 127.942 125.89C127.915 125.817 127.902 125.723 127.902 125.61C127.902 125.49 127.915 125.397 127.942 125.33C127.962 125.263 128.015 125.23 128.102 125.23V126ZM130.942 120.1V119.17H131.802V120.1H130.942Z" fill="#211A13"/>
<path d="M139.416 131V128.408L143.04 124.688C143.728 123.984 144.32 123.368 144.816 122.84C145.312 122.296 145.688 121.784 145.944 121.304C146.216 120.824 146.352 120.312 146.352 119.768C146.352 118.968 146.128 118.432 145.68 118.16C145.232 117.872 144.512 117.728 143.52 117.728C143.12 117.728 142.68 117.752 142.2 117.8C141.72 117.848 141.256 117.904 140.808 117.968C140.376 118.032 140 118.096 139.68 118.16L139.512 115.616C139.864 115.52 140.296 115.416 140.808 115.304C141.336 115.192 141.904 115.096 142.512 115.016C143.136 114.92 143.744 114.872 144.336 114.872C146.064 114.872 147.384 115.24 148.296 115.976C149.208 116.696 149.664 117.816 149.664 119.336C149.664 120.168 149.544 120.904 149.304 121.544C149.08 122.184 148.72 122.8 148.224 123.392C147.744 123.968 147.104 124.6 146.304 125.288L143.136 128.312H149.88V131H139.416ZM158.008 131.264C156.984 131.264 156.096 131.128 155.344 130.856C154.592 130.568 153.968 130.112 153.472 129.488C152.992 128.848 152.624 128.016 152.368 126.992C152.128 125.968 152.008 124.712 152.008 123.224C152.008 121.688 152.128 120.384 152.368 119.312C152.624 118.24 153 117.384 153.496 116.744C153.992 116.088 154.608 115.616 155.344 115.328C156.096 115.04 156.976 114.896 157.984 114.896C159.024 114.896 159.92 115.04 160.672 115.328C161.424 115.616 162.04 116.088 162.52 116.744C163.016 117.384 163.376 118.24 163.6 119.312C163.84 120.368 163.96 121.672 163.96 123.224C163.96 125.192 163.744 126.768 163.312 127.952C162.896 129.12 162.248 129.968 161.368 130.496C160.488 131.008 159.368 131.264 158.008 131.264ZM158.008 128.48C158.456 128.48 158.84 128.408 159.16 128.264C159.496 128.104 159.776 127.832 160 127.448C160.224 127.064 160.384 126.528 160.48 125.84C160.592 125.152 160.648 124.28 160.648 123.224C160.648 122.104 160.592 121.184 160.48 120.464C160.384 119.744 160.232 119.184 160.024 118.784C159.816 118.368 159.544 118.08 159.208 117.92C158.872 117.744 158.472 117.656 158.008 117.656C157.544 117.656 157.144 117.744 156.808 117.92C156.472 118.08 156.192 118.36 155.968 118.76C155.76 119.16 155.6 119.728 155.488 120.464C155.376 121.184 155.32 122.112 155.32 123.248C155.32 124.304 155.376 125.176 155.488 125.864C155.616 126.552 155.792 127.088 156.016 127.472C156.24 127.84 156.512 128.104 156.832 128.264C157.168 128.408 157.56 128.48 158.008 128.48Z" fill="#211A13"/>
<path fill-rule="evenodd" clip-rule="evenodd" d="M68.4332 73.9949L-9.73515 11.5689L-11.3842 134.298L68.4332 73.9949ZM-10.3906 124.665L-9.00075 21.225L-0.333183 73.0709L-10.3906 124.665ZM-8.46756 19.1511L0.548688 73.0827L-9.91337 126.753L7.04146 73.17L-8.46756 19.1511ZM14.4025 73.2689L-7.44837 19.5339L7.95427 73.1822L-8.88427 126.397L14.4025 73.2689ZM-6.30012 20.0162L15.3598 73.2817L-7.72347 125.946L21.7517 73.3676L-6.30012 20.0162ZM29.091 73.4662L-4.99548 20.5832L22.7654 73.3812L-6.40406 125.414L29.091 73.4662ZM-3.51381 21.2209L30.171 73.4807L-4.9058 124.817L36.4221 73.5647L-3.51381 21.2209ZM43.7464 73.6632L-1.83987 21.9172L37.5766 73.5803L-3.21378 124.166L43.7464 73.6632ZM0.0372134 22.6618L44.9822 73.6798L-1.31725 123.472L51.0651 73.7615L0.0372134 22.6618ZM59.5981 73.8762L0.543533 21.8621L52.3878 73.7793L-0.832712 124.285L59.5981 73.8762ZM4.83713 24.4039L61.0276 73.8954L3.5277 121.859L66.9081 73.9744L4.83713 24.4039Z" fill="#FFD5A9"/>
<rect x="4.63477" y="102.673" width="44" height="44" rx="22" transform="rotate(-6.09724 4.63477 102.673)" fill="white"/>
<path d="M27.5725 110.28C25.2126 110.532 22.9804 111.478 21.1582 112.999C19.336 114.52 18.0057 116.547 17.3355 118.824C16.6653 121.1 16.6853 123.525 17.3929 125.79C18.1006 128.056 19.4641 130.06 21.3111 131.551C23.1581 133.041 25.4056 133.951 27.7694 134.164C30.1331 134.377 32.507 133.884 34.5909 132.748C36.6747 131.612 38.3749 129.884 39.4764 127.782C40.5779 125.679 41.0313 123.298 40.7792 120.938C40.4379 117.774 38.8557 114.876 36.3798 112.878C33.9039 110.88 30.7364 109.946 27.5725 110.28ZM29.9256 132.309C27.9287 132.522 25.9134 132.138 24.1346 131.206C22.3557 130.274 20.8932 128.836 19.932 127.072C18.9707 125.309 18.5539 123.3 18.7343 121.3C18.9146 119.3 19.6841 117.398 20.9452 115.836C22.2064 114.273 23.9027 113.119 25.8196 112.52C27.7365 111.921 29.7879 111.905 31.7144 112.472C33.6409 113.039 35.356 114.164 36.6428 115.706C37.9295 117.248 38.7302 119.137 38.9435 121.134C39.2264 123.811 38.4358 126.491 36.7452 128.586C35.0546 130.681 32.6021 132.02 29.9256 132.309ZM33.4907 124.773C33.5851 124.849 33.6636 124.943 33.7216 125.049C33.7797 125.156 33.8162 125.273 33.8291 125.393C33.8419 125.514 33.8309 125.636 33.7967 125.752C33.7624 125.869 33.7056 125.977 33.6294 126.071C33.5533 126.166 33.4593 126.244 33.3528 126.302C33.2463 126.36 33.1294 126.397 33.0088 126.41C32.8882 126.423 32.7662 126.412 32.6499 126.377C32.5335 126.343 32.4251 126.286 32.3307 126.21L25.938 121.05L26.2896 124.342C26.3156 124.585 26.2439 124.829 26.0901 125.02C25.9364 125.21 25.7132 125.332 25.4698 125.358C25.2264 125.384 24.9826 125.312 24.7921 125.158C24.6016 125.005 24.4799 124.782 24.4539 124.538L23.8656 119.031C23.8396 118.788 23.9114 118.544 24.0651 118.353C24.2189 118.163 24.442 118.041 24.6854 118.015L30.1926 117.427C30.436 117.401 30.6798 117.473 30.8703 117.626C31.0608 117.78 31.1825 118.003 31.2085 118.247C31.2345 118.49 31.1627 118.734 31.009 118.924C30.8552 119.115 30.6321 119.237 30.3887 119.263L27.097 119.614L33.4907 124.773Z" fill="#211A13"/>
</g>
</g>
<defs>
<filter id="filter0_b_1979_10618" x="-33" y="-33" width="245" height="219" filterUnits="userSpaceOnUse" color-interpolation-filters="sRGB">
<feFlood flood-opacity="0" result="BackgroundImageFix"/>
<feGaussianBlur in="BackgroundImageFix" stdDeviation="16.5"/>
<feComposite in2="SourceAlpha" operator="in" result="effect1_backgroundBlur_1979_10618"/>
<feBlend mode="normal" in="SourceGraphic" in2="effect1_backgroundBlur_1979_10618" result="shape"/>
</filter>
<clipPath id="clip0_1979_10618">
<rect width="179" height="153" rx="24" fill="white"/>
</clipPath>
</defs>
</svg>
