<svg width="252" height="252" viewBox="0 0 252 252" fill="none" xmlns="http://www.w3.org/2000/svg">
<rect width="252" height="252" rx="126" fill="#F5F5F5"/>
<path d="M145.25 106.75H106.75C105.822 106.75 104.932 107.119 104.275 107.775C103.619 108.432 103.25 109.322 103.25 110.25V141.75C103.25 142.678 103.619 143.568 104.275 144.225C104.932 144.881 105.822 145.25 106.75 145.25H145.25C146.178 145.25 147.068 144.881 147.725 144.225C148.381 143.568 148.75 142.678 148.75 141.75V110.25C148.75 109.322 148.381 108.432 147.725 107.775C147.068 107.119 146.178 106.75 145.25 106.75ZM145.25 110.25V132.727L139.547 127.026C139.222 126.701 138.836 126.443 138.412 126.267C137.987 126.091 137.532 126.001 137.072 126.001C136.612 126.001 136.157 126.091 135.732 126.267C135.308 126.443 134.922 126.701 134.597 127.026L130.222 131.401L120.597 121.776C119.941 121.12 119.051 120.752 118.123 120.752C117.195 120.752 116.305 121.12 115.649 121.776L106.75 130.675V110.25H145.25ZM106.75 135.625L118.125 124.25L135.625 141.75H106.75V135.625ZM145.25 141.75H140.575L132.7 133.875L137.075 129.5L145.25 137.677V141.75ZM129.5 119.875C129.5 119.356 129.654 118.848 129.942 118.417C130.231 117.985 130.641 117.648 131.12 117.45C131.6 117.251 132.128 117.199 132.637 117.3C133.146 117.402 133.614 117.652 133.981 118.019C134.348 118.386 134.598 118.854 134.7 119.363C134.801 119.872 134.749 120.4 134.55 120.88C134.352 121.359 134.015 121.769 133.583 122.058C133.152 122.346 132.644 122.5 132.125 122.5C131.429 122.5 130.761 122.223 130.269 121.731C129.777 121.239 129.5 120.571 129.5 119.875Z" fill="#A7A7A7"/>
</svg>
