<svg width="430" height="371" viewBox="0 0 430 371" fill="none" xmlns="http://www.w3.org/2000/svg">
<path d="M444.108 258.81L369.475 295.083L270.606 301.904L30.8609 366.144C29.4773 366.515 28.0245 365.855 27.3924 364.57L16.8592 343.152L1.52612 305.669L-6.15934 276.986L-18.215 231.994L-40.3672 149.321L-7.5702 72.4188L1.16411 39.3366L-12.9646 -13.3925C-13.3987 -15.0126 -12.4202 -16.674 -10.7927 -17.0798L83.5174 -40.5968L136.174 -54.7061L203.099 -74.4471L314.641 -104.334L384.849 -123.147L442.038 -138.47C443.002 -138.729 444.005 -138.217 444.362 -137.285L495.917 -109.507L514 -42.0187L542.029 62.5881L563.159 152.769L519.906 233.678L444.108 258.81Z" fill="url(#paint0_linear_1768_3228)"/>
<path d="M83.5174 -40.5968L100.477 17.5481M83.5174 -40.5968L136.174 -54.7061M83.5174 -40.5968L-10.7927 -17.0798C-12.4202 -16.674 -13.3987 -15.0126 -12.9646 -13.3925L1.16411 39.3366M100.477 17.5481L113.359 61.7159L125.883 114.117M100.477 17.5481L150.184 6.64018M100.477 17.5481L21.2246 34.9355M150.184 6.64018L136.174 -54.7061M150.184 6.64018L217.79 -15.0915M150.184 6.64018L170.829 83.6893M136.174 -54.7061L203.099 -74.4471M217.79 -15.0915L203.099 -74.4471M217.79 -15.0915L328.541 -50.1922M217.79 -15.0915L239.34 65.3321M203.099 -74.4471L314.641 -104.334M328.541 -50.1922L314.641 -104.334M328.541 -50.1922L404.604 -76.6008M328.541 -50.1922L348.396 21.6436M314.641 -104.334L384.849 -123.147M404.604 -76.6008L384.849 -123.147M404.604 -76.6008L426.052 -21.467M404.604 -76.6008L459.945 -96.544M384.849 -123.147L442.038 -138.47C443.002 -138.729 444.005 -138.217 444.362 -137.285V-137.285M348.396 21.6436L239.34 65.3321M348.396 21.6436L381.982 108.486M348.396 21.6436L417.212 -4.63168M239.34 65.3321L170.829 83.6893M239.34 65.3321L254.181 125.25L265.789 159.512M170.829 83.6893L219.356 180.996M170.829 83.6893L125.883 114.117M265.789 159.512L253.371 165.258M265.789 159.512L323.886 133.999M381.982 108.486L448.552 80.6212M381.982 108.486L323.886 133.999M381.982 108.486L419.87 197.793M417.212 -4.63168L421.599 -18.8221C421.904 -19.8073 422.693 -20.567 423.689 -20.8338L426.052 -21.467M417.212 -4.63168L420.513 9.91544C420.547 10.0666 420.593 10.2148 420.65 10.3589L448.552 80.6212M444.353 -14.3152L431.089 -21.9143C430.401 -22.308 429.586 -22.4139 428.821 -22.2089L426.052 -21.467M444.353 -14.3152L514 -42.0187M444.353 -14.3152L478.017 68.2874M514 -42.0187L542.029 62.5881M514 -42.0187L495.917 -109.507M478.017 68.2874L448.552 80.6212M478.017 68.2874L542.029 62.5881M478.017 68.2874L504.238 166.145M495.917 -109.507L459.945 -96.544M495.917 -109.507L444.362 -137.285M459.945 -96.544L444.362 -137.285M542.029 62.5881L563.159 152.769M219.356 180.996L93.5736 237.002M219.356 180.996L224.747 194.319L230.137 207.643M219.356 180.996L253.371 165.258M1.16411 39.3366L21.2246 34.9355M1.16411 39.3366L-7.5702 72.4188M21.2246 34.9355L27.4464 61.2278L30.2619 73.1258C30.3513 73.5038 30.5134 73.8609 30.739 74.1772L80.937 144.546M-7.5702 72.4188L11.0487 157.244M-7.5702 72.4188L-40.3672 149.321M20.6158 243.29L24.715 235.483C24.926 235.081 25.0431 234.636 25.0574 234.182L25.4072 223.087C25.415 222.839 25.3921 222.591 25.3389 222.349L11.0487 157.244M20.6158 243.29L30.269 261.198M20.6158 243.29L2.80927 240.995C2.52962 240.959 2.25645 240.883 1.99782 240.771L-18.215 231.994M30.269 261.198L-6.15934 276.986M30.269 261.198L34.1224 259.725M-6.15934 276.986L1.52612 305.669M-6.15934 276.986L-18.215 231.994M-18.215 231.994L-40.3672 149.321M11.0487 157.244L-11.2676 161.487C-11.862 161.6 -12.4767 161.53 -13.0309 161.288L-40.3672 149.321M11.0487 157.244L80.937 144.546M80.937 144.546L80.5358 201.368C80.5332 201.732 80.5969 202.093 80.7237 202.434L93.5736 237.002M80.937 144.546L125.883 114.117M93.5736 237.002L34.1224 259.725M34.1224 259.725L39.9265 273.459L45.7306 287.194M45.7306 287.194L1.52612 305.669M45.7306 287.194L203.563 217.175L230.137 207.643M45.7306 287.194L61.7496 331.124M1.52612 305.669L16.8592 343.152M230.137 207.643L266.415 191.292M230.137 207.643L240.768 233.728M253.371 165.258L260.383 177.839L266.415 191.292M266.415 191.292L279.274 214.369M323.886 133.999L361.848 223.588M361.848 223.588L314.699 244.66M361.848 223.588L419.87 197.793M314.699 244.66L279.274 214.369M314.699 244.66L369.475 295.083M279.274 214.369L240.768 233.728M240.768 233.728L261.618 277.569M261.618 277.569L61.7496 331.124M261.618 277.569L270.606 301.904M419.87 197.793L504.238 166.145M419.87 197.793L444.108 258.81M504.238 166.145L563.159 152.769M504.238 166.145L519.906 233.678M563.159 152.769L519.906 233.678M444.108 258.81L369.475 295.083M444.108 258.81L519.906 233.678M369.475 295.083L270.606 301.904M61.7496 331.124L16.8592 343.152M16.8592 343.152L27.3924 364.57C28.0245 365.855 29.4773 366.515 30.8609 366.144L270.606 301.904" stroke="url(#paint1_linear_1768_3228)" stroke-width="8" stroke-linecap="round" stroke-linejoin="round"/>
<defs>
<linearGradient id="paint0_linear_1768_3228" x1="202.533" y1="-74.2954" x2="306.061" y2="312.075" gradientUnits="userSpaceOnUse">
<stop stop-color="#FFF7E2"/>
<stop offset="1" stop-color="white"/>
</linearGradient>
<linearGradient id="paint1_linear_1768_3228" x1="249.932" y1="100.368" x2="271.006" y2="181.243" gradientUnits="userSpaceOnUse">
<stop stop-color="white"/>
<stop offset="1" stop-color="white"/>
</linearGradient>
</defs>
</svg>
