<svg width="382" height="210" viewBox="0 0 382 210" fill="none" xmlns="http://www.w3.org/2000/svg">
<path fill-rule="evenodd" clip-rule="evenodd" d="M24 0C10.7452 0 0 10.7452 0 24V186C0 186.022 2.92505e-05 186.044 8.77144e-05 186.066C0.000118373 183.151 0.000158035 180.038 0.000200192 176.737C0.000322606 167.094 0.000465393 155.845 0.000465393 143.234C0.000465393 118.782 0.000244141 111.514 0.000213623 111.027C0.00549316 111.749 6.11572 139.693 29.8198 137.718C53.5342 135.742 67.3557 154.266 69.1672 161.016C70.8141 164.309 73.3916 174.323 72.6256 188.184C71.4613 209.248 100.978 209.701 114.046 209.901C115.636 209.926 116.982 209.946 118 210H358C371.255 210 382 199.255 382 186V24C382 10.7452 371.255 0 358 0H24Z" fill="#FFDDBA"/>
</svg>
