<svg width="69" height="124" viewBox="0 0 69 124" fill="none" xmlns="http://www.w3.org/2000/svg">
<path fill-rule="evenodd" clip-rule="evenodd" d="M68.4332 62.9949L-9.73515 0.568944L-11.3842 123.298L68.4332 62.9949ZM-10.3906 113.665L-9.00075 10.225L-0.333183 62.0709L-10.3906 113.665ZM-8.46756 8.1511L0.548688 62.0827L-9.91337 115.753L7.04146 62.17L-8.46756 8.1511ZM14.4025 62.2689L-7.44837 8.53392L7.95427 62.1822L-8.88427 115.397L14.4025 62.2689ZM-6.30012 9.01625L15.3598 62.2817L-7.72347 114.946L21.7517 62.3676L-6.30012 9.01625ZM29.091 62.4662L-4.99548 9.58323L22.7654 62.3812L-6.40406 114.414L29.091 62.4662ZM-3.51381 10.2209L30.171 62.4807L-4.9058 113.817L36.4221 62.5647L-3.51381 10.2209ZM43.7464 62.6632L-1.83987 10.9172L37.5766 62.5803L-3.21378 113.166L43.7464 62.6632ZM0.0372134 11.6618L44.9822 62.6798L-1.31725 112.472L51.0651 62.7615L0.0372134 11.6618ZM59.5981 62.8762L0.543533 10.8621L52.3878 62.7793L-0.832712 113.285L59.5981 62.8762ZM4.83713 13.4039L61.0276 62.8954L3.5277 110.859L66.9081 62.9744L4.83713 13.4039Z" fill="#FFD5A9"/>
</svg>
