<svg width="88" height="118" viewBox="0 0 88 118" fill="none" xmlns="http://www.w3.org/2000/svg">
<path fill-rule="evenodd" clip-rule="evenodd" d="M62.9429 -4.62918L10.8244 -48.357L10.0583 -48.9998L10.0581 -48.9998L10.058 -48.9998L9.41519 -48.2336L-21.1124 -11.8483L-21.1622 -11.7888L-25.5651 -6.54106L-25.5732 -6.53147L-30.0186 -1.233L-30.105 -1.12978L-34.4708 4.07365C-59.0635 33.3853 -55.3226 77.0125 -26.1153 101.518C3.09208 126.023 46.7057 122.127 71.2984 92.8149C95.8911 63.5032 92.1502 19.876 62.9429 -4.62918ZM-11.0039 40.5453C-27.7216 26.5189 -30.1915 1.78691 -16.8318 -15.3526C-23.6416 -1.40508 -20.4156 15.8663 -8.02876 26.259C6.57492 38.5116 28.3817 36.5634 40.6781 21.9076C51.1109 9.4729 51.3455 -8.11437 42.2577 -20.643C58.3332 -6.13934 60.1199 18.6599 46.0355 35.4469C31.6327 52.6134 6.09486 54.8913 -11.0039 40.5453ZM-7.38601 25.4929C-21.5346 13.6221 -23.3764 -7.49721 -11.5145 -21.7317L10.181 -47.5902L36.0353 -25.8982C50.0506 -13.9754 51.8055 7.08921 39.912 21.2648C27.9684 35.5001 6.79199 37.3884 -7.38601 25.4929ZM-18.238 70.6481C-40.2967 52.1406 -43.8648 19.742 -26.9278 -3.19538C-37.317 16.5476 -32.9927 41.4877 -15.2636 56.3626C5.18158 73.5162 35.7111 70.7887 52.926 50.2706C67.8596 32.4714 67.868 7.13125 54.2613 -10.4702C74.8554 9.10842 76.8683 41.659 58.2841 63.8092C38.9628 86.838 4.70224 89.8951 -18.238 70.6481ZM-21.8857 -9.27295C-37.0288 10.7679 -34.0081 39.3304 -14.6208 55.5965C5.39866 72.393 35.2978 69.7255 52.1599 49.6278C68.4946 30.1588 66.5955 1.48361 48.2616 -15.5603C59.6078 -0.492162 59.4854 20.9721 46.8016 36.0897C32.0459 53.6767 5.87777 56.0145 -11.6466 41.3114C-26.704 28.6781 -30.4808 7.5745 -21.8857 -9.27295ZM60.2576 -5.37422C83.1129 16.7352 85.2407 53.1607 64.4075 77.9914C42.6269 103.951 4.00501 107.398 -21.8559 85.7006C-46.5876 64.9505 -50.7006 28.7114 -31.9625 2.88054C-44.1523 25.5164 -39.2827 54.2967 -18.8807 71.4142C4.48516 91.0184 39.376 87.9012 59.0502 64.4519C76.233 43.972 76.1261 14.7565 60.2576 -5.37422ZM-22.4987 86.4667C-45.5733 67.1069 -50.9871 34.4862 -36.9947 8.95971C-57.5337 37.6816 -52.8761 77.7598 -25.4725 100.752C3.30916 124.9 46.2924 121.063 70.5323 92.1721C93.6201 64.6542 91.3695 24.3402 66.2337 -0.295701C84.3821 22.3624 84.6114 55.4666 65.1736 78.6341C43.0402 105.015 3.78794 108.521 -22.4987 86.4667ZM4.38746 -13.2017L3.90771 -14.0792L3.40274 -13.216C-0.936568 -15.7547 -6.10891 -16.4551 -10.1872 -15.3133C-14.2076 -14.1879 -17.1272 -11.307 -17.3197 -6.54518C-17.6416 1.41593 -14.4131 9.41746 -7.85598 14.9189C3.40129 24.3639 20.2164 22.8653 29.7007 11.5611C33.3821 7.17328 35.4159 1.95658 35.8696 -3.33835C36.1905 -7.08442 35.2346 -9.96075 33.4862 -12.0947C31.724 -14.2456 29.0847 -15.7287 25.9039 -16.5292C19.5208 -18.1357 11.198 -16.9257 4.38746 -13.2017ZM30.4667 12.2039C20.6296 23.9285 3.18421 25.4871 -8.49873 15.685C-15.3038 9.97549 -18.6527 1.67089 -18.3189 -6.58558C-17.8932 -17.1148 -5.18795 -19.4004 3.90771 -14.0792C17.9086 -21.7346 38.2281 -19.1519 36.8659 -3.25298C36.3953 2.24056 34.2846 7.65347 30.4667 12.2039Z" fill="#FFD5A9"/>
</svg>
