<svg width="296" height="306" viewBox="0 0 296 306" fill="none" xmlns="http://www.w3.org/2000/svg">
<rect x="0.5" width="295" height="306" rx="48" fill="#FFAE48"/>
<rect x="16.5" y="16" width="263" height="274" rx="32" fill="white"/>
<path d="M270.952 26.96H27.4583V270.491H270.952V26.96Z" fill="white"/>
<path d="M102.209 34.7407H93.5862V30.4288C93.5862 27.9854 95.4544 26.1169 97.8974 26.1169C100.34 26.1169 102.209 27.9854 102.209 30.4288V34.7407Z" fill="#D07A09"/>
<path d="M118.951 34.7407H110.329V30.4288C110.329 27.9854 112.197 26.1169 114.64 26.1169C117.083 26.1169 118.951 27.9854 118.951 30.4288V34.7407Z" fill="#D07A09"/>
<path d="M131.383 34.7407C133.764 34.7407 135.694 32.8102 135.694 30.4288C135.694 28.0474 133.764 26.1169 131.383 26.1169C129.002 26.1169 127.072 28.0474 127.072 30.4288C127.072 32.8102 129.002 34.7407 131.383 34.7407Z" fill="#D07A09"/>
<path d="M152.437 34.7407H143.814V30.4288C143.814 27.9854 145.683 26.1169 148.126 26.1169C150.569 26.1169 152.437 27.9854 152.437 30.4288V34.7407Z" fill="#D07A09"/>
<path d="M177.551 34.7407H168.928V30.4288C168.928 27.9854 170.797 26.1169 173.24 26.1169H177.551V34.7407Z" fill="#D07A09"/>
<path d="M181.611 34.7407H177.3V26.1169H181.611C184.054 26.1169 185.922 27.9854 185.922 30.4288C185.922 32.8723 184.054 34.7407 181.611 34.7407Z" fill="#D07A09"/>
<path d="M198.354 34.7407C200.735 34.7407 202.665 32.8102 202.665 30.4288C202.665 28.0474 200.735 26.1169 198.354 26.1169C195.973 26.1169 194.042 28.0474 194.042 30.4288C194.042 32.8102 195.973 34.7407 198.354 34.7407Z" fill="#D07A09"/>
<path d="M102.209 34.4895H93.5862V43.1133H102.209V34.4895Z" fill="#D07A09"/>
<path d="M110.58 34.4895H101.958V43.1133H110.58V34.4895Z" fill="#D07A09"/>
<path d="M118.951 34.4895H110.329V43.1133H118.951V34.4895Z" fill="#D07A09"/>
<path d="M127.323 43.1133H118.7V34.4895H123.012C125.455 34.4895 127.323 36.358 127.323 38.8014V43.1133Z" fill="#D07A09"/>
<path d="M152.437 43.1133H148.126C145.683 43.1133 143.814 41.2448 143.814 38.8014V34.4895H152.437V43.1133Z" fill="#D07A09"/>
<path d="M160.808 34.4895H152.186V43.1133H160.808V34.4895Z" fill="#D07A09"/>
<path d="M169.179 34.4895H160.557V43.1133H169.179V34.4895Z" fill="#D07A09"/>
<path d="M173.24 43.1133H168.928V34.4895H177.551V38.8014C177.551 41.2448 175.683 43.1133 173.24 43.1133Z" fill="#D07A09"/>
<path d="M194.294 43.1133H185.671V38.8014C185.671 36.358 187.539 34.4895 189.982 34.4895C192.425 34.4895 194.294 36.358 194.294 38.8014V43.1133Z" fill="#D07A09"/>
<path d="M97.8974 51.4861C95.4544 51.4861 93.5862 49.6176 93.5862 47.1742V42.8623H102.209V47.1742C102.209 49.6176 100.34 51.4861 97.8974 51.4861Z" fill="#D07A09"/>
<path d="M127.323 51.4861H123.012C120.568 51.4861 118.7 49.6176 118.7 47.1742V42.8623H127.323V51.4861Z" fill="#D07A09"/>
<path d="M131.383 51.4861H127.072V42.8623H131.383C133.826 42.8623 135.694 44.7308 135.694 47.1742C135.694 49.6176 133.826 51.4861 131.383 51.4861Z" fill="#D07A09"/>
<path d="M156.497 51.4861C154.054 51.4861 152.186 49.6176 152.186 47.1742V42.8623H160.808V47.1742C160.808 49.6176 158.94 51.4861 156.497 51.4861Z" fill="#D07A09"/>
<path d="M185.922 51.4861H181.611C179.168 51.4861 177.3 49.6176 177.3 47.1742C177.3 44.7308 179.168 42.8623 181.611 42.8623H185.922V51.4861Z" fill="#D07A09"/>
<path d="M194.294 42.8623H185.671V51.4861H194.294V42.8623Z" fill="#D07A09"/>
<path d="M198.354 51.4861H194.042V42.8623H198.354C200.797 42.8623 202.665 44.7308 202.665 47.1742C202.665 49.6176 200.797 51.4861 198.354 51.4861Z" fill="#D07A09"/>
<path d="M118.951 59.8587H110.329V55.5468C110.329 53.1034 112.197 51.2349 114.64 51.2349C117.083 51.2349 118.951 53.1034 118.951 55.5468V59.8587Z" fill="#D07A09"/>
<path d="M144.065 59.8587H135.443V55.5468C135.443 53.1034 137.311 51.2349 139.754 51.2349H144.065V59.8587Z" fill="#D07A09"/>
<path d="M148.126 59.8587H143.814V51.2349H148.126C150.569 51.2349 152.437 53.1034 152.437 55.5468C152.437 57.9902 150.569 59.8587 148.126 59.8587Z" fill="#D07A09"/>
<path d="M169.179 59.8587H160.557V55.5468C160.557 53.1034 162.425 51.2349 164.868 51.2349H169.179V59.8587Z" fill="#D07A09"/>
<path d="M173.24 59.8587H168.928V51.2349H173.24C175.683 51.2349 177.551 53.1034 177.551 55.5468C177.551 57.9902 175.683 59.8587 173.24 59.8587Z" fill="#D07A09"/>
<path d="M194.294 51.2349H185.671V59.8587H194.294V51.2349Z" fill="#D07A09"/>
<path d="M110.58 68.2312H101.958V63.9193C101.958 61.4759 103.826 59.6074 106.269 59.6074H110.58V68.2312Z" fill="#D07A09"/>
<path d="M118.951 59.6074H110.329V68.2312H118.951V59.6074Z" fill="#D07A09"/>
<path d="M127.323 59.6074H118.7V68.2312H127.323V59.6074Z" fill="#D07A09"/>
<path d="M135.694 59.6074H127.072V68.2312H135.694V59.6074Z" fill="#D07A09"/>
<path d="M144.065 59.6074H135.443V68.2312H144.065V59.6074Z" fill="#D07A09"/>
<path d="M169.179 59.6074H160.557V68.2312H169.179V59.6074Z" fill="#D07A09"/>
<path d="M185.922 68.2312H177.3V63.9193C177.3 61.4759 179.168 59.6074 181.611 59.6074H185.922V68.2312Z" fill="#D07A09"/>
<path d="M189.982 68.2312H185.671V59.6074H194.294V63.9193C194.294 66.3627 192.425 68.2312 189.982 68.2312Z" fill="#D07A09"/>
<path d="M102.209 76.6038H93.5862V72.2919C93.5862 69.8485 95.4544 67.98 97.8974 67.98H102.209V76.6038Z" fill="#D07A09"/>
<path d="M110.58 67.98H101.958V76.6038H110.58V67.98Z" fill="#D07A09"/>
<path d="M118.951 67.98H110.329V76.6038H118.951V67.98Z" fill="#D07A09"/>
<path d="M135.694 67.98H127.072V76.6038H135.694V67.98Z" fill="#D07A09"/>
<path d="M139.754 76.6038H135.443V67.98H144.065V72.2919C144.065 74.7353 142.197 76.6038 139.754 76.6038Z" fill="#D07A09"/>
<path d="M160.808 76.6038H156.497C154.054 76.6038 152.186 74.7353 152.186 72.2919C152.186 69.8485 154.054 67.98 156.497 67.98H160.808V76.6038Z" fill="#D07A09"/>
<path d="M169.179 67.98H160.557V76.6038H169.179V67.98Z" fill="#D07A09"/>
<path d="M185.922 67.98H177.3V76.6038H185.922V67.98Z" fill="#D07A09"/>
<path d="M102.209 76.3528H93.5862V84.9766H102.209V76.3528Z" fill="#D07A09"/>
<path d="M118.951 76.3528H110.329V84.9766H118.951V76.3528Z" fill="#D07A09"/>
<path d="M135.694 76.3528H127.072V84.9766H135.694V76.3528Z" fill="#D07A09"/>
<path d="M148.126 84.9766C150.507 84.9766 152.437 83.0461 152.437 80.6647C152.437 78.2833 150.507 76.3528 148.126 76.3528C145.745 76.3528 143.814 78.2833 143.814 80.6647C143.814 83.0461 145.745 84.9766 148.126 84.9766Z" fill="#D07A09"/>
<path d="M169.179 76.3528H160.557V84.9766H169.179V76.3528Z" fill="#D07A09"/>
<path d="M181.611 84.9766C179.168 84.9766 177.3 83.1081 177.3 80.6647V76.3528H185.922V80.6647C185.922 83.1081 184.054 84.9766 181.611 84.9766Z" fill="#D07A09"/>
<path d="M198.354 84.9766C200.735 84.9766 202.665 83.0461 202.665 80.6647C202.665 78.2833 200.735 76.3528 198.354 76.3528C195.973 76.3528 194.042 78.2833 194.042 80.6647C194.042 83.0461 195.973 84.9766 198.354 84.9766Z" fill="#D07A09"/>
<path d="M102.209 84.7253H93.5862V93.3491H102.209V84.7253Z" fill="#D07A09"/>
<path d="M118.951 93.3491H114.64C112.197 93.3491 110.329 91.4807 110.329 89.0372V84.7253H118.951V93.3491Z" fill="#D07A09"/>
<path d="M127.323 84.7253H118.7V93.3491H127.323V84.7253Z" fill="#D07A09"/>
<path d="M131.383 93.3491H127.072V84.7253H135.694V89.0372C135.694 91.4807 133.826 93.3491 131.383 93.3491Z" fill="#D07A09"/>
<path d="M160.808 93.3491H152.186V89.0372C152.186 86.5938 154.054 84.7253 156.497 84.7253H160.808V93.3491Z" fill="#D07A09"/>
<path d="M169.179 84.7253H160.557V93.3491H169.179V84.7253Z" fill="#D07A09"/>
<path d="M189.982 93.3491C192.363 93.3491 194.294 91.4186 194.294 89.0372C194.294 86.6558 192.363 84.7253 189.982 84.7253C187.601 84.7253 185.671 86.6558 185.671 89.0372C185.671 91.4186 187.601 93.3491 189.982 93.3491Z" fill="#D07A09"/>
<path d="M51.9805 101.722H47.6693C45.2262 101.722 43.358 99.8532 43.358 97.4098C43.358 94.9664 45.2262 93.0979 47.6693 93.0979H51.9805V101.722Z" fill="#D07A09"/>
<path d="M60.3519 93.0979H51.7294V101.722H60.3519V93.0979Z" fill="#D07A09"/>
<path d="M64.412 101.722H60.1008V93.0979H64.412C66.8551 93.0979 68.7233 94.9664 68.7233 97.4098C68.7233 99.8532 66.8551 101.722 64.412 101.722Z" fill="#D07A09"/>
<path d="M81.1548 101.722C83.5358 101.722 85.466 99.7912 85.466 97.4098C85.466 95.0284 83.5358 93.0979 81.1548 93.0979C78.7737 93.0979 76.8435 95.0284 76.8435 97.4098C76.8435 99.7912 78.7737 101.722 81.1548 101.722Z" fill="#D07A09"/>
<path d="M97.8974 101.722C95.4544 101.722 93.5862 99.8532 93.5862 97.4098V93.0979H102.209V97.4098C102.209 99.8532 100.34 101.722 97.8974 101.722Z" fill="#D07A09"/>
<path d="M144.065 101.722H139.754C137.311 101.722 135.443 99.8532 135.443 97.4098C135.443 94.9664 137.311 93.0979 139.754 93.0979H144.065V101.722Z" fill="#D07A09"/>
<path d="M152.437 93.0979H143.814V101.722H152.437V93.0979Z" fill="#D07A09"/>
<path d="M160.808 93.0979H152.186V101.722H160.808V93.0979Z" fill="#D07A09"/>
<path d="M169.179 93.0979H160.557V101.722H169.179V93.0979Z" fill="#D07A09"/>
<path d="M181.611 101.722C183.992 101.722 185.922 99.7912 185.922 97.4098C185.922 95.0284 183.992 93.0979 181.611 93.0979C179.23 93.0979 177.3 95.0284 177.3 97.4098C177.3 99.7912 179.23 101.722 181.611 101.722Z" fill="#D07A09"/>
<path d="M211.036 101.722H202.414V97.4098C202.414 94.9664 204.282 93.0979 206.725 93.0979H211.036V101.722Z" fill="#D07A09"/>
<path d="M219.408 93.0979H210.785V101.722H219.408V93.0979Z" fill="#D07A09"/>
<path d="M227.779 101.722H219.156V93.0979H223.468C225.911 93.0979 227.779 94.9664 227.779 97.4098V101.722Z" fill="#D07A09"/>
<path d="M252.893 101.722H244.271V97.4098C244.271 94.9664 246.139 93.0979 248.582 93.0979H252.893V101.722Z" fill="#D07A09"/>
<path d="M261.264 93.0979H252.642V101.722H261.264V93.0979Z" fill="#D07A09"/>
<path d="M269.636 101.722H261.013V93.0979H265.324C267.768 93.0979 269.636 94.9664 269.636 97.4098V101.722Z" fill="#D07A09"/>
<path d="M60.3519 101.471H51.7294V110.095H60.3519V101.471Z" fill="#D07A09"/>
<path d="M110.58 110.095H106.269C103.826 110.095 101.958 108.226 101.958 105.783C101.958 103.339 103.826 101.471 106.269 101.471H110.58V110.095Z" fill="#D07A09"/>
<path d="M118.951 110.095H110.329V101.471H114.64C117.083 101.471 118.951 103.339 118.951 105.783V110.095Z" fill="#D07A09"/>
<path d="M169.179 101.471H160.557V110.095H169.179V101.471Z" fill="#D07A09"/>
<path d="M173.24 110.095H168.928V101.471H173.24C175.683 101.471 177.551 103.339 177.551 105.783C177.551 108.226 175.683 110.095 173.24 110.095Z" fill="#D07A09"/>
<path d="M211.036 101.471H202.414V110.095H211.036V101.471Z" fill="#D07A09"/>
<path d="M227.779 101.471H219.156V110.095H227.779V101.471Z" fill="#D07A09"/>
<path d="M236.15 101.471H227.528V110.095H236.15V101.471Z" fill="#D07A09"/>
<path d="M244.522 101.471H235.899V110.095H244.522V101.471Z" fill="#D07A09"/>
<path d="M252.893 101.471H244.271V110.095H252.893V101.471Z" fill="#D07A09"/>
<path d="M265.324 110.095C262.881 110.095 261.013 108.226 261.013 105.783V101.471H269.636V105.783C269.636 108.226 267.768 110.095 265.324 110.095Z" fill="#D07A09"/>
<path d="M39.2979 118.467C41.679 118.467 43.6092 116.537 43.6092 114.155C43.6092 111.774 41.679 109.843 39.2979 109.843C36.9169 109.843 34.9867 111.774 34.9867 114.155C34.9867 116.537 36.9169 118.467 39.2979 118.467Z" fill="#D07A09"/>
<path d="M60.3519 109.843H51.7294V118.467H60.3519V109.843Z" fill="#D07A09"/>
<path d="M68.7233 109.843H60.1008V118.467H68.7233V109.843Z" fill="#D07A09"/>
<path d="M77.0946 109.843H68.4721V118.467H77.0946V109.843Z" fill="#D07A09"/>
<path d="M81.1548 118.467H76.8435V109.843H81.1548C83.5978 109.843 85.466 111.712 85.466 114.155C85.466 116.599 83.5978 118.467 81.1548 118.467Z" fill="#D07A09"/>
<path d="M118.951 109.843H110.329V118.467H118.951V109.843Z" fill="#D07A09"/>
<path d="M135.694 118.467H127.072V114.155C127.072 111.712 128.94 109.843 131.383 109.843H135.694V118.467Z" fill="#D07A09"/>
<path d="M144.065 109.843H135.443V118.467H144.065V109.843Z" fill="#D07A09"/>
<path d="M152.437 109.843H143.814V118.467H152.437V109.843Z" fill="#D07A09"/>
<path d="M160.808 109.843H152.186V118.467H160.808V109.843Z" fill="#D07A09"/>
<path d="M169.179 109.843H160.557V118.467H169.179V109.843Z" fill="#D07A09"/>
<path d="M211.036 109.843H202.414V118.467H211.036V109.843Z" fill="#D07A09"/>
<path d="M219.408 109.843H210.785V118.467H219.408V109.843Z" fill="#D07A09"/>
<path d="M227.779 109.843H219.156V118.467H227.779V109.843Z" fill="#D07A09"/>
<path d="M248.582 118.467C246.139 118.467 244.271 116.599 244.271 114.155V109.843H252.893V114.155C252.893 116.599 251.025 118.467 248.582 118.467Z" fill="#D07A09"/>
<path d="M51.9805 126.84H47.6693C45.2262 126.84 43.358 124.971 43.358 122.528C43.358 120.084 45.2262 118.216 47.6693 118.216H51.9805V126.84Z" fill="#D07A09"/>
<path d="M60.3519 118.216H51.7294V126.84H60.3519V118.216Z" fill="#D07A09"/>
<path d="M93.8373 126.84H89.5261C87.0831 126.84 85.2148 124.971 85.2148 122.528C85.2148 120.084 87.0831 118.216 89.5261 118.216H93.8373V126.84Z" fill="#D07A09"/>
<path d="M102.209 118.216H93.5862V126.84H102.209V118.216Z" fill="#D07A09"/>
<path d="M110.58 118.216H101.958V126.84H110.58V118.216Z" fill="#D07A09"/>
<path d="M118.951 118.216H110.329V126.84H118.951V118.216Z" fill="#D07A09"/>
<path d="M127.323 118.216H118.7V126.84H127.323V118.216Z" fill="#D07A09"/>
<path d="M131.383 126.84H127.072V118.216H135.694V122.528C135.694 124.971 133.826 126.84 131.383 126.84Z" fill="#D07A09"/>
<path d="M169.179 118.216H160.557V126.84H169.179V118.216Z" fill="#D07A09"/>
<path d="M173.24 126.84H168.928V118.216H173.24C175.683 118.216 177.551 120.084 177.551 122.528C177.551 124.971 175.683 126.84 173.24 126.84Z" fill="#D07A09"/>
<path d="M189.982 126.84C192.363 126.84 194.294 124.909 194.294 122.528C194.294 120.146 192.363 118.216 189.982 118.216C187.601 118.216 185.671 120.146 185.671 122.528C185.671 124.909 187.601 126.84 189.982 126.84Z" fill="#D07A09"/>
<path d="M211.036 118.216H202.414V126.84H211.036V118.216Z" fill="#D07A09"/>
<path d="M219.408 118.216H210.785V126.84H219.408V118.216Z" fill="#D07A09"/>
<path d="M227.779 118.216H219.156V126.84H227.779V118.216Z" fill="#D07A09"/>
<path d="M236.15 118.216H227.528V126.84H236.15V118.216Z" fill="#D07A09"/>
<path d="M240.21 126.84H235.899V118.216H240.21C242.653 118.216 244.522 120.084 244.522 122.528C244.522 124.971 242.653 126.84 240.21 126.84Z" fill="#D07A09"/>
<path d="M261.264 126.84H252.642V122.528C252.642 120.084 254.51 118.216 256.953 118.216C259.396 118.216 261.264 120.084 261.264 122.528V126.84Z" fill="#D07A09"/>
<path d="M39.2979 135.212C41.679 135.212 43.6092 133.282 43.6092 130.9C43.6092 128.519 41.679 126.588 39.2979 126.588C36.9169 126.588 34.9867 128.519 34.9867 130.9C34.9867 133.282 36.9169 135.212 39.2979 135.212Z" fill="#D07A09"/>
<path d="M60.3519 126.588H51.7294V135.212H60.3519V126.588Z" fill="#D07A09"/>
<path d="M68.7233 126.588H60.1008V135.212H68.7233V126.588Z" fill="#D07A09"/>
<path d="M77.0946 126.588H68.4721V135.212H77.0946V126.588Z" fill="#D07A09"/>
<path d="M81.1548 135.212H76.8435V126.588H81.1548C83.5978 126.588 85.466 128.457 85.466 130.9C85.466 133.344 83.5978 135.212 81.1548 135.212Z" fill="#D07A09"/>
<path d="M97.8974 135.212C95.4544 135.212 93.5862 133.344 93.5862 130.9V126.588H102.209V130.9C102.209 133.344 100.34 135.212 97.8974 135.212Z" fill="#D07A09"/>
<path d="M123.012 135.212C120.568 135.212 118.7 133.344 118.7 130.9V126.588H127.323V130.9C127.323 133.344 125.455 135.212 123.012 135.212Z" fill="#D07A09"/>
<path d="M144.065 135.212H135.443V130.9C135.443 128.457 137.311 126.588 139.754 126.588H144.065V135.212Z" fill="#D07A09"/>
<path d="M148.126 135.212H143.814V126.588H148.126C150.569 126.588 152.437 128.457 152.437 130.9C152.437 133.344 150.569 135.212 148.126 135.212Z" fill="#D07A09"/>
<path d="M164.868 135.212C162.425 135.212 160.557 133.344 160.557 130.9V126.588H169.179V130.9C169.179 133.344 167.311 135.212 164.868 135.212Z" fill="#D07A09"/>
<path d="M202.665 135.212H194.042V130.9C194.042 128.457 195.911 126.588 198.354 126.588H202.665V135.212Z" fill="#D07A09"/>
<path d="M211.036 126.588H202.414V135.212H211.036V126.588Z" fill="#D07A09"/>
<path d="M223.468 135.212C221.025 135.212 219.156 133.344 219.156 130.9V126.588H227.779V130.9C227.779 133.344 225.911 135.212 223.468 135.212Z" fill="#D07A09"/>
<path d="M252.893 135.212H248.582C246.139 135.212 244.271 133.344 244.271 130.9C244.271 128.457 246.139 126.588 248.582 126.588H252.893V135.212Z" fill="#D07A09"/>
<path d="M261.264 126.588H252.642V135.212H261.264V126.588Z" fill="#D07A09"/>
<path d="M269.636 135.212H261.013V126.588H265.324C267.768 126.588 269.636 128.457 269.636 130.9V135.212Z" fill="#D07A09"/>
<path d="M51.9805 143.585H47.6693C45.2262 143.585 43.358 141.716 43.358 139.273C43.358 136.83 45.2262 134.961 47.6693 134.961H51.9805V143.585Z" fill="#D07A09"/>
<path d="M56.0407 143.585H51.7294V134.961H60.3519V139.273C60.3519 141.716 58.4837 143.585 56.0407 143.585Z" fill="#D07A09"/>
<path d="M77.0946 134.961H68.4721V143.585H77.0946V134.961Z" fill="#D07A09"/>
<path d="M89.5261 143.585C91.9071 143.585 93.8373 141.654 93.8373 139.273C93.8373 136.892 91.9071 134.961 89.5261 134.961C87.1451 134.961 85.2148 136.892 85.2148 139.273C85.2148 141.654 87.1451 143.585 89.5261 143.585Z" fill="#D07A09"/>
<path d="M118.951 143.585H110.329V139.273C110.329 136.83 112.197 134.961 114.64 134.961C117.083 134.961 118.951 136.83 118.951 139.273V143.585Z" fill="#D07A09"/>
<path d="M135.694 143.585H127.072V139.273C127.072 136.83 128.94 134.961 131.383 134.961H135.694V143.585Z" fill="#D07A09"/>
<path d="M144.065 134.961H135.443V143.585H144.065V134.961Z" fill="#D07A09"/>
<path d="M156.497 143.585C158.878 143.585 160.808 141.654 160.808 139.273C160.808 136.892 158.878 134.961 156.497 134.961C154.116 134.961 152.186 136.892 152.186 139.273C152.186 141.654 154.116 143.585 156.497 143.585Z" fill="#D07A09"/>
<path d="M177.551 143.585H173.24C170.797 143.585 168.928 141.716 168.928 139.273C168.928 136.83 170.797 134.961 173.24 134.961H177.551V143.585Z" fill="#D07A09"/>
<path d="M185.922 134.961H177.3V143.585H185.922V134.961Z" fill="#D07A09"/>
<path d="M194.294 134.961H185.671V143.585H194.294V134.961Z" fill="#D07A09"/>
<path d="M202.665 134.961H194.042V143.585H202.665V134.961Z" fill="#D07A09"/>
<path d="M211.036 134.961H202.414V143.585H211.036V134.961Z" fill="#D07A09"/>
<path d="M219.408 143.585H210.785V134.961H215.096C217.539 134.961 219.408 136.83 219.408 139.273V143.585Z" fill="#D07A09"/>
<path d="M236.15 143.585H231.839C229.396 143.585 227.528 141.716 227.528 139.273C227.528 136.83 229.396 134.961 231.839 134.961H236.15V143.585Z" fill="#D07A09"/>
<path d="M240.21 143.585H235.899V134.961H240.21C242.653 134.961 244.522 136.83 244.522 139.273C244.522 141.716 242.653 143.585 240.21 143.585Z" fill="#D07A09"/>
<path d="M261.264 143.585H256.953C254.51 143.585 252.642 141.716 252.642 139.273V134.961H261.264V143.585Z" fill="#D07A09"/>
<path d="M265.324 143.585H261.013V134.961H269.636V139.273C269.636 141.716 267.768 143.585 265.324 143.585Z" fill="#D07A09"/>
<path d="M35.2378 151.958H30.9266C28.4836 151.958 26.6154 150.089 26.6154 147.646C26.6154 145.202 28.4836 143.334 30.9266 143.334H35.2378V151.958Z" fill="#D07A09"/>
<path d="M43.6092 151.958H34.9867V143.334H39.2979C41.741 143.334 43.6092 145.202 43.6092 147.646V151.958Z" fill="#D07A09"/>
<path d="M77.0946 151.958H72.7834C70.3403 151.958 68.4721 150.089 68.4721 147.646V143.334H77.0946V151.958Z" fill="#D07A09"/>
<path d="M81.1548 151.958H76.8435V143.334H81.1548C83.5978 143.334 85.466 145.202 85.466 147.646C85.466 150.089 83.5978 151.958 81.1548 151.958Z" fill="#D07A09"/>
<path d="M102.209 151.958H93.5862V147.646C93.5862 145.202 95.4544 143.334 97.8974 143.334H102.209V151.958Z" fill="#D07A09"/>
<path d="M110.58 143.334H101.958V151.958H110.58V143.334Z" fill="#D07A09"/>
<path d="M118.951 143.334H110.329V151.958H118.951V143.334Z" fill="#D07A09"/>
<path d="M135.694 143.334H127.072V151.958H135.694V143.334Z" fill="#D07A09"/>
<path d="M144.065 143.334H135.443V151.958H144.065V143.334Z" fill="#D07A09"/>
<path d="M181.611 151.958C179.168 151.958 177.3 150.089 177.3 147.646V143.334H185.922V147.646C185.922 150.089 184.054 151.958 181.611 151.958Z" fill="#D07A09"/>
<path d="M198.354 151.958C195.911 151.958 194.042 150.089 194.042 147.646V143.334H202.665V147.646C202.665 150.089 200.797 151.958 198.354 151.958Z" fill="#D07A09"/>
<path d="M219.408 143.334H210.785V151.958H219.408V143.334Z" fill="#D07A09"/>
<path d="M223.468 151.958H219.156V143.334H223.468C225.911 143.334 227.779 145.202 227.779 147.646C227.779 150.089 225.911 151.958 223.468 151.958Z" fill="#D07A09"/>
<path d="M43.6092 151.706H34.9867V160.33H43.6092V151.706Z" fill="#D07A09"/>
<path d="M51.9805 160.33H43.358V151.706H47.6693C50.1123 151.706 51.9805 153.575 51.9805 156.018V160.33Z" fill="#D07A09"/>
<path d="M93.8373 160.33H85.2148V156.018C85.2148 153.575 87.0831 151.706 89.5261 151.706H93.8373V160.33Z" fill="#D07A09"/>
<path d="M102.209 151.706H93.5862V160.33H102.209V151.706Z" fill="#D07A09"/>
<path d="M110.58 151.706H101.958V160.33H110.58V151.706Z" fill="#D07A09"/>
<path d="M118.951 151.706H110.329V160.33H118.951V151.706Z" fill="#D07A09"/>
<path d="M135.694 160.33H131.383C128.94 160.33 127.072 158.462 127.072 156.018V151.706H135.694V160.33Z" fill="#D07A09"/>
<path d="M139.754 160.33H135.443V151.706H144.065V156.018C144.065 158.462 142.197 160.33 139.754 160.33Z" fill="#D07A09"/>
<path d="M156.497 160.33C158.878 160.33 160.808 158.4 160.808 156.018C160.808 153.637 158.878 151.706 156.497 151.706C154.116 151.706 152.186 153.637 152.186 156.018C152.186 158.4 154.116 160.33 156.497 160.33Z" fill="#D07A09"/>
<path d="M215.096 160.33C212.653 160.33 210.785 158.462 210.785 156.018V151.706H219.408V156.018C219.408 158.462 217.539 160.33 215.096 160.33Z" fill="#D07A09"/>
<path d="M236.15 160.33H231.839C229.396 160.33 227.528 158.462 227.528 156.018C227.528 153.575 229.396 151.706 231.839 151.706H236.15V160.33Z" fill="#D07A09"/>
<path d="M244.522 160.33H235.899V151.706H240.21C242.653 151.706 244.522 153.575 244.522 156.018V160.33Z" fill="#D07A09"/>
<path d="M35.2378 168.703H26.6154V164.391C26.6154 161.947 28.4836 160.079 30.9266 160.079H35.2378V168.703Z" fill="#D07A09"/>
<path d="M43.6092 160.079H34.9867V168.703H43.6092V160.079Z" fill="#D07A09"/>
<path d="M47.6693 168.703H43.358V160.079H51.9805V164.391C51.9805 166.834 50.1123 168.703 47.6693 168.703Z" fill="#D07A09"/>
<path d="M68.7233 168.703H60.1008V164.391C60.1008 161.947 61.969 160.079 64.412 160.079H68.7233V168.703Z" fill="#D07A09"/>
<path d="M77.0946 160.079H68.4721V168.703H77.0946V160.079Z" fill="#D07A09"/>
<path d="M85.466 160.079H76.8435V168.703H85.466V160.079Z" fill="#D07A09"/>
<path d="M93.8373 160.079H85.2148V168.703H93.8373V160.079Z" fill="#D07A09"/>
<path d="M102.209 160.079H93.5862V168.703H102.209V160.079Z" fill="#D07A09"/>
<path d="M110.58 160.079H101.958V168.703H110.58V160.079Z" fill="#D07A09"/>
<path d="M118.951 160.079H110.329V168.703H118.951V160.079Z" fill="#D07A09"/>
<path d="M123.012 168.703H118.7V160.079H123.012C125.455 160.079 127.323 161.947 127.323 164.391C127.323 166.834 125.455 168.703 123.012 168.703Z" fill="#D07A09"/>
<path d="M152.437 168.703H143.814V164.391C143.814 161.947 145.683 160.079 148.126 160.079C150.569 160.079 152.437 161.947 152.437 164.391V168.703Z" fill="#D07A09"/>
<path d="M169.179 168.703H160.557V164.391C160.557 161.947 162.425 160.079 164.868 160.079H169.179V168.703Z" fill="#D07A09"/>
<path d="M173.24 168.703H168.928V160.079H173.24C175.683 160.079 177.551 161.947 177.551 164.391C177.551 166.834 175.683 168.703 173.24 168.703Z" fill="#D07A09"/>
<path d="M202.665 168.703H194.042V164.391C194.042 161.947 195.911 160.079 198.354 160.079C200.797 160.079 202.665 161.947 202.665 164.391V168.703Z" fill="#D07A09"/>
<path d="M223.468 168.703C225.849 168.703 227.779 166.772 227.779 164.391C227.779 162.009 225.849 160.079 223.468 160.079C221.087 160.079 219.156 162.009 219.156 164.391C219.156 166.772 221.087 168.703 223.468 168.703Z" fill="#D07A09"/>
<path d="M244.522 168.703H240.21C237.767 168.703 235.899 166.834 235.899 164.391V160.079H244.522V168.703Z" fill="#D07A09"/>
<path d="M252.893 160.079H244.271V168.703H252.893V160.079Z" fill="#D07A09"/>
<path d="M261.264 160.079H252.642V168.703H261.264V160.079Z" fill="#D07A09"/>
<path d="M269.636 168.703H261.013V160.079H265.324C267.768 160.079 269.636 161.947 269.636 164.391V168.703Z" fill="#D07A09"/>
<path d="M35.2378 168.452H26.6154V177.075H35.2378V168.452Z" fill="#D07A09"/>
<path d="M39.2979 177.075H34.9867V168.452H43.6092V172.764C43.6092 175.207 41.741 177.075 39.2979 177.075Z" fill="#D07A09"/>
<path d="M68.7233 168.452H60.1008V177.075H68.7233V168.452Z" fill="#D07A09"/>
<path d="M77.0946 168.452H68.4721V177.075H77.0946V168.452Z" fill="#D07A09"/>
<path d="M89.5261 177.075C87.0831 177.075 85.2148 175.207 85.2148 172.764V168.452H93.8373V172.764C93.8373 175.207 91.9691 177.075 89.5261 177.075Z" fill="#D07A09"/>
<path d="M114.64 177.075C112.197 177.075 110.329 175.207 110.329 172.764V168.452H118.951V172.764C118.951 175.207 117.083 177.075 114.64 177.075Z" fill="#D07A09"/>
<path d="M148.126 177.075C145.683 177.075 143.814 175.207 143.814 172.764V168.452H152.437V172.764C152.437 175.207 150.569 177.075 148.126 177.075Z" fill="#D07A09"/>
<path d="M169.179 168.452H160.557V177.075H169.179V168.452Z" fill="#D07A09"/>
<path d="M202.665 168.452H194.042V177.075H202.665V168.452Z" fill="#D07A09"/>
<path d="M236.15 177.075H227.528V172.764C227.528 170.32 229.396 168.452 231.839 168.452C234.282 168.452 236.15 170.32 236.15 172.764V177.075Z" fill="#D07A09"/>
<path d="M252.893 168.452H244.271V177.075H252.893V168.452Z" fill="#D07A09"/>
<path d="M261.264 168.452H252.642V177.075H261.264V168.452Z" fill="#D07A09"/>
<path d="M265.324 177.075H261.013V168.452H269.636V172.764C269.636 175.207 267.768 177.075 265.324 177.075Z" fill="#D07A09"/>
<path d="M35.2378 176.824H26.6154V185.448H35.2378V176.824Z" fill="#D07A09"/>
<path d="M51.9805 185.448H43.358V181.136C43.358 178.693 45.2262 176.824 47.6693 176.824C50.1123 176.824 51.9805 178.693 51.9805 181.136V185.448Z" fill="#D07A09"/>
<path d="M68.7233 176.824H60.1008V185.448H68.7233V176.824Z" fill="#D07A09"/>
<path d="M77.0946 176.824H68.4721V185.448H77.0946V176.824Z" fill="#D07A09"/>
<path d="M81.1548 185.448H76.8435V176.824H81.1548C83.5978 176.824 85.466 178.693 85.466 181.136C85.466 183.58 83.5978 185.448 81.1548 185.448Z" fill="#D07A09"/>
<path d="M102.209 185.448H93.5862V181.136C93.5862 178.693 95.4544 176.824 97.8974 176.824H102.209V185.448Z" fill="#D07A09"/>
<path d="M106.269 185.448H101.958V176.824H106.269C108.712 176.824 110.58 178.693 110.58 181.136C110.58 183.58 108.712 185.448 106.269 185.448Z" fill="#D07A09"/>
<path d="M144.065 185.448H135.443V181.136C135.443 178.693 137.311 176.824 139.754 176.824C142.197 176.824 144.065 178.693 144.065 181.136V185.448Z" fill="#D07A09"/>
<path d="M169.179 176.824H160.557V185.448H169.179V176.824Z" fill="#D07A09"/>
<path d="M181.611 185.448C183.992 185.448 185.922 183.518 185.922 181.136C185.922 178.755 183.992 176.824 181.611 176.824C179.23 176.824 177.3 178.755 177.3 181.136C177.3 183.518 179.23 185.448 181.611 185.448Z" fill="#D07A09"/>
<path d="M198.354 185.448C195.911 185.448 194.042 183.58 194.042 181.136V176.824H202.665V181.136C202.665 183.58 200.797 185.448 198.354 185.448Z" fill="#D07A09"/>
<path d="M219.408 185.448H210.785V181.136C210.785 178.693 212.653 176.824 215.096 176.824H219.408V185.448Z" fill="#D07A09"/>
<path d="M227.779 176.824H219.156V185.448H227.779V176.824Z" fill="#D07A09"/>
<path d="M236.15 176.824H227.528V185.448H236.15V176.824Z" fill="#D07A09"/>
<path d="M244.522 176.824H235.899V185.448H244.522V176.824Z" fill="#D07A09"/>
<path d="M248.582 185.448H244.271V176.824H252.893V181.136C252.893 183.58 251.025 185.448 248.582 185.448Z" fill="#D07A09"/>
<path d="M35.2378 185.197H26.6154V193.821H35.2378V185.197Z" fill="#D07A09"/>
<path d="M51.9805 185.197H43.358V193.821H51.9805V185.197Z" fill="#D07A09"/>
<path d="M60.3519 185.197H51.7294V193.821H60.3519V185.197Z" fill="#D07A09"/>
<path d="M64.412 193.821H60.1008V185.197H68.7233V189.509C68.7233 191.952 66.8551 193.821 64.412 193.821Z" fill="#D07A09"/>
<path d="M102.209 185.197H93.5862V193.821H102.209V185.197Z" fill="#D07A09"/>
<path d="M114.64 193.821C117.021 193.821 118.951 191.89 118.951 189.509C118.951 187.127 117.021 185.197 114.64 185.197C112.259 185.197 110.329 187.127 110.329 189.509C110.329 191.89 112.259 193.821 114.64 193.821Z" fill="#D07A09"/>
<path d="M135.694 193.821H127.072V189.509C127.072 187.065 128.94 185.197 131.383 185.197H135.694V193.821Z" fill="#D07A09"/>
<path d="M144.065 185.197H135.443V193.821H144.065V185.197Z" fill="#D07A09"/>
<path d="M152.437 193.821H143.814V185.197H148.126C150.569 185.197 152.437 187.065 152.437 189.509V193.821Z" fill="#D07A09"/>
<path d="M169.179 185.197H160.557V193.821H169.179V185.197Z" fill="#D07A09"/>
<path d="M219.408 185.197H210.785V193.821H219.408V185.197Z" fill="#D07A09"/>
<path d="M227.779 185.197H219.156V193.821H227.779V185.197Z" fill="#D07A09"/>
<path d="M236.15 185.197H227.528V193.821H236.15V185.197Z" fill="#D07A09"/>
<path d="M261.264 193.821H256.953C254.51 193.821 252.642 191.952 252.642 189.509C252.642 187.065 254.51 185.197 256.953 185.197H261.264V193.821Z" fill="#D07A09"/>
<path d="M265.324 193.821H261.013V185.197H265.324C267.768 185.197 269.636 187.065 269.636 189.509C269.636 191.952 267.768 193.821 265.324 193.821Z" fill="#D07A09"/>
<path d="M30.9266 202.193C28.4836 202.193 26.6154 200.325 26.6154 197.881V193.57H35.2378V197.881C35.2378 200.325 33.3696 202.193 30.9266 202.193Z" fill="#D07A09"/>
<path d="M51.9805 202.193H47.6693C45.2262 202.193 43.358 200.325 43.358 197.881V193.57H51.9805V202.193Z" fill="#D07A09"/>
<path d="M56.0407 202.193H51.7294V193.57H60.3519V197.881C60.3519 200.325 58.4837 202.193 56.0407 202.193Z" fill="#D07A09"/>
<path d="M77.0946 202.193H72.7834C70.3403 202.193 68.4721 200.325 68.4721 197.881C68.4721 195.438 70.3403 193.57 72.7834 193.57H77.0946V202.193Z" fill="#D07A09"/>
<path d="M81.1548 202.193H76.8435V193.57H81.1548C83.5978 193.57 85.466 195.438 85.466 197.881C85.466 200.325 83.5978 202.193 81.1548 202.193Z" fill="#D07A09"/>
<path d="M102.209 193.57H93.5862V202.193H102.209V193.57Z" fill="#D07A09"/>
<path d="M127.323 202.193H118.7V197.881C118.7 195.438 120.568 193.57 123.012 193.57H127.323V202.193Z" fill="#D07A09"/>
<path d="M135.694 193.57H127.072V202.193H135.694V193.57Z" fill="#D07A09"/>
<path d="M152.437 193.57H143.814V202.193H152.437V193.57Z" fill="#D07A09"/>
<path d="M160.808 193.57H152.186V202.193H160.808V193.57Z" fill="#D07A09"/>
<path d="M164.868 202.193H160.557V193.57H169.179V197.881C169.179 200.325 167.311 202.193 164.868 202.193Z" fill="#D07A09"/>
<path d="M202.665 202.193H194.042V197.881C194.042 195.438 195.911 193.57 198.354 193.57H202.665V202.193Z" fill="#D07A09"/>
<path d="M211.036 193.57H202.414V202.193H211.036V193.57Z" fill="#D07A09"/>
<path d="M219.408 193.57H210.785V202.193H219.408V193.57Z" fill="#D07A09"/>
<path d="M227.779 193.57H219.156V202.193H227.779V193.57Z" fill="#D07A09"/>
<path d="M236.15 193.57H227.528V202.193H236.15V193.57Z" fill="#D07A09"/>
<path d="M248.582 202.193C250.963 202.193 252.893 200.263 252.893 197.881C252.893 195.5 250.963 193.57 248.582 193.57C246.201 193.57 244.271 195.5 244.271 197.881C244.271 200.263 246.201 202.193 248.582 202.193Z" fill="#D07A09"/>
<path d="M102.209 210.566H97.8974C95.4544 210.566 93.5862 208.697 93.5862 206.254V201.942H102.209V210.566Z" fill="#D07A09"/>
<path d="M110.58 201.942H101.958V210.566H110.58V201.942Z" fill="#D07A09"/>
<path d="M118.951 201.942H110.329V210.566H118.951V201.942Z" fill="#D07A09"/>
<path d="M127.323 201.942H118.7V210.566H127.323V201.942Z" fill="#D07A09"/>
<path d="M135.694 201.942H127.072V210.566H135.694V201.942Z" fill="#D07A09"/>
<path d="M144.065 201.942H135.443V210.566H144.065V201.942Z" fill="#D07A09"/>
<path d="M152.437 201.942H143.814V210.566H152.437V201.942Z" fill="#D07A09"/>
<path d="M160.808 201.942H152.186V210.566H160.808V201.942Z" fill="#D07A09"/>
<path d="M185.922 210.566H181.611C179.168 210.566 177.3 208.697 177.3 206.254C177.3 203.811 179.168 201.942 181.611 201.942H185.922V210.566Z" fill="#D07A09"/>
<path d="M194.294 201.942H185.671V210.566H194.294V201.942Z" fill="#D07A09"/>
<path d="M202.665 201.942H194.042V210.566H202.665V201.942Z" fill="#D07A09"/>
<path d="M236.15 201.942H227.528V210.566H236.15V201.942Z" fill="#D07A09"/>
<path d="M240.21 210.566H235.899V201.942H240.21C242.653 201.942 244.522 203.811 244.522 206.254C244.522 208.697 242.653 210.566 240.21 210.566Z" fill="#D07A09"/>
<path d="M261.264 210.566H256.953C254.51 210.566 252.642 208.697 252.642 206.254C252.642 203.811 254.51 201.942 256.953 201.942H261.264V210.566Z" fill="#D07A09"/>
<path d="M265.324 210.566H261.013V201.942H265.324C267.768 201.942 269.636 203.811 269.636 206.254C269.636 208.697 267.768 210.566 265.324 210.566Z" fill="#D07A09"/>
<path d="M118.951 210.315H110.329V218.939H118.951V210.315Z" fill="#D07A09"/>
<path d="M123.012 218.939H118.7V210.315H127.323V214.627C127.323 217.07 125.455 218.939 123.012 218.939Z" fill="#D07A09"/>
<path d="M152.437 218.939H148.126C145.683 218.939 143.814 217.07 143.814 214.627V210.315H152.437V218.939Z" fill="#D07A09"/>
<path d="M160.808 210.315H152.186V218.939H160.808V210.315Z" fill="#D07A09"/>
<path d="M173.24 218.939C175.621 218.939 177.551 217.008 177.551 214.627C177.551 212.245 175.621 210.315 173.24 210.315C170.859 210.315 168.928 212.245 168.928 214.627C168.928 217.008 170.859 218.939 173.24 218.939Z" fill="#D07A09"/>
<path d="M194.294 210.315H185.671V218.939H194.294V210.315Z" fill="#D07A09"/>
<path d="M202.665 210.315H194.042V218.939H202.665V210.315Z" fill="#D07A09"/>
<path d="M215.096 218.939C217.477 218.939 219.408 217.008 219.408 214.627C219.408 212.245 217.477 210.315 215.096 210.315C212.715 210.315 210.785 212.245 210.785 214.627C210.785 217.008 212.715 218.939 215.096 218.939Z" fill="#D07A09"/>
<path d="M236.15 210.315H227.528V218.939H236.15V210.315Z" fill="#D07A09"/>
<path d="M114.64 227.311C112.197 227.311 110.329 225.443 110.329 222.999V218.687H118.951V222.999C118.951 225.443 117.083 227.311 114.64 227.311Z" fill="#D07A09"/>
<path d="M139.754 227.311C142.135 227.311 144.065 225.381 144.065 222.999C144.065 220.618 142.135 218.687 139.754 218.687C137.373 218.687 135.443 220.618 135.443 222.999C135.443 225.381 137.373 227.311 139.754 227.311Z" fill="#D07A09"/>
<path d="M160.808 218.687H152.186V227.311H160.808V218.687Z" fill="#D07A09"/>
<path d="M194.294 227.311H189.982C187.539 227.311 185.671 225.443 185.671 222.999V218.687H194.294V227.311Z" fill="#D07A09"/>
<path d="M202.665 218.687H194.042V227.311H202.665V218.687Z" fill="#D07A09"/>
<path d="M236.15 218.687H227.528V227.311H236.15V218.687Z" fill="#D07A09"/>
<path d="M244.522 227.311H235.899V218.687H240.21C242.653 218.687 244.522 220.556 244.522 222.999V227.311Z" fill="#D07A09"/>
<path d="M256.953 227.311C259.334 227.311 261.264 225.381 261.264 222.999C261.264 220.618 259.334 218.687 256.953 218.687C254.572 218.687 252.642 220.618 252.642 222.999C252.642 225.381 254.572 227.311 256.953 227.311Z" fill="#D07A09"/>
<path d="M102.209 235.684H93.5862V231.372C93.5862 228.929 95.4544 227.06 97.8974 227.06C100.34 227.06 102.209 228.929 102.209 231.372V235.684Z" fill="#D07A09"/>
<path d="M135.694 235.684H127.072V231.372C127.072 228.929 128.94 227.06 131.383 227.06C133.826 227.06 135.694 228.929 135.694 231.372V235.684Z" fill="#D07A09"/>
<path d="M152.437 235.684H148.126C145.683 235.684 143.814 233.815 143.814 231.372C143.814 228.929 145.683 227.06 148.126 227.06H152.437V235.684Z" fill="#D07A09"/>
<path d="M160.808 227.06H152.186V235.684H160.808V227.06Z" fill="#D07A09"/>
<path d="M169.179 235.684H160.557V227.06H164.868C167.311 227.06 169.179 228.929 169.179 231.372V235.684Z" fill="#D07A09"/>
<path d="M185.922 235.684H177.3V231.372C177.3 228.929 179.168 227.06 181.611 227.06C184.054 227.06 185.922 228.929 185.922 231.372V235.684Z" fill="#D07A09"/>
<path d="M202.665 227.06H194.042V235.684H202.665V227.06Z" fill="#D07A09"/>
<path d="M211.036 227.06H202.414V235.684H211.036V227.06Z" fill="#D07A09"/>
<path d="M219.408 227.06H210.785V235.684H219.408V227.06Z" fill="#D07A09"/>
<path d="M227.779 227.06H219.156V235.684H227.779V227.06Z" fill="#D07A09"/>
<path d="M236.15 227.06H227.528V235.684H236.15V227.06Z" fill="#D07A09"/>
<path d="M244.522 227.06H235.899V235.684H244.522V227.06Z" fill="#D07A09"/>
<path d="M252.893 235.684H244.271V227.06H248.582C251.025 227.06 252.893 228.929 252.893 231.372V235.684Z" fill="#D07A09"/>
<path d="M265.324 235.684C267.706 235.684 269.636 233.753 269.636 231.372C269.636 228.991 267.706 227.06 265.324 227.06C262.943 227.06 261.013 228.991 261.013 231.372C261.013 233.753 262.943 235.684 265.324 235.684Z" fill="#D07A09"/>
<path d="M102.209 235.433H93.5862V244.056H102.209V235.433Z" fill="#D07A09"/>
<path d="M110.58 244.056H101.958V235.433H106.269C108.712 235.433 110.58 237.301 110.58 239.745V244.056Z" fill="#D07A09"/>
<path d="M131.383 244.056C128.94 244.056 127.072 242.188 127.072 239.745V235.433H135.694V239.745C135.694 242.188 133.826 244.056 131.383 244.056Z" fill="#D07A09"/>
<path d="M169.179 235.433H160.557V244.056H169.179V235.433Z" fill="#D07A09"/>
<path d="M185.922 235.433H177.3V244.056H185.922V235.433Z" fill="#D07A09"/>
<path d="M194.294 235.433H185.671V244.056H194.294V235.433Z" fill="#D07A09"/>
<path d="M202.665 235.433H194.042V244.056H202.665V235.433Z" fill="#D07A09"/>
<path d="M211.036 235.433H202.414V244.056H211.036V235.433Z" fill="#D07A09"/>
<path d="M227.779 235.433H219.156V244.056H227.779V235.433Z" fill="#D07A09"/>
<path d="M244.522 235.433H235.899V244.056H244.522V235.433Z" fill="#D07A09"/>
<path d="M252.893 235.433H244.271V244.056H252.893V235.433Z" fill="#D07A09"/>
<path d="M102.209 252.429H97.8974C95.4544 252.429 93.5862 250.56 93.5862 248.117V243.805H102.209V252.429Z" fill="#D07A09"/>
<path d="M106.269 252.429H101.958V243.805H110.58V248.117C110.58 250.56 108.712 252.429 106.269 252.429Z" fill="#D07A09"/>
<path d="M152.437 252.429H143.814V248.117C143.814 245.674 145.683 243.805 148.126 243.805C150.569 243.805 152.437 245.674 152.437 248.117V252.429Z" fill="#D07A09"/>
<path d="M169.179 243.805H160.557V252.429H169.179V243.805Z" fill="#D07A09"/>
<path d="M185.922 252.429H181.611C179.168 252.429 177.3 250.56 177.3 248.117V243.805H185.922V252.429Z" fill="#D07A09"/>
<path d="M194.294 243.805H185.671V252.429H194.294V243.805Z" fill="#D07A09"/>
<path d="M202.665 243.805H194.042V252.429H202.665V243.805Z" fill="#D07A09"/>
<path d="M211.036 243.805H202.414V252.429H211.036V243.805Z" fill="#D07A09"/>
<path d="M219.408 243.805H210.785V252.429H219.408V243.805Z" fill="#D07A09"/>
<path d="M227.779 243.805H219.156V252.429H227.779V243.805Z" fill="#D07A09"/>
<path d="M236.15 243.805H227.528V252.429H236.15V243.805Z" fill="#D07A09"/>
<path d="M244.522 243.805H235.899V252.429H244.522V243.805Z" fill="#D07A09"/>
<path d="M252.893 243.805H244.271V252.429H252.893V243.805Z" fill="#D07A09"/>
<path d="M261.264 252.429H252.642V243.805H256.953C259.396 243.805 261.264 245.674 261.264 248.117V252.429Z" fill="#D07A09"/>
<path d="M118.951 260.802H110.329V256.49C110.329 254.046 112.197 252.178 114.64 252.178C117.083 252.178 118.951 254.046 118.951 256.49V260.802Z" fill="#D07A09"/>
<path d="M135.694 260.802H131.383C128.94 260.802 127.072 258.933 127.072 256.49C127.072 254.046 128.94 252.178 131.383 252.178H135.694V260.802Z" fill="#D07A09"/>
<path d="M144.065 252.178H135.443V260.802H144.065V252.178Z" fill="#D07A09"/>
<path d="M148.126 260.802H143.814V252.178H152.437V256.49C152.437 258.933 150.569 260.802 148.126 260.802Z" fill="#D07A09"/>
<path d="M169.179 252.178H160.557V260.802H169.179V252.178Z" fill="#D07A09"/>
<path d="M194.294 252.178H185.671V260.802H194.294V252.178Z" fill="#D07A09"/>
<path d="M198.354 260.802H194.042V252.178H202.665V256.49C202.665 258.933 200.797 260.802 198.354 260.802Z" fill="#D07A09"/>
<path d="M236.15 252.178H227.528V260.802H236.15V252.178Z" fill="#D07A09"/>
<path d="M240.21 260.802H235.899V252.178H244.522V256.49C244.522 258.933 242.653 260.802 240.21 260.802Z" fill="#D07A09"/>
<path d="M256.953 260.802C254.51 260.802 252.642 258.933 252.642 256.49V252.178H261.264V256.49C261.264 258.933 259.396 260.802 256.953 260.802Z" fill="#D07A09"/>
<path d="M118.951 269.174H114.64C112.197 269.174 110.329 267.306 110.329 264.862V260.551H118.951V269.174Z" fill="#D07A09"/>
<path d="M123.012 269.174H118.7V260.551H123.012C125.455 260.551 127.323 262.419 127.323 264.862C127.323 267.306 125.455 269.174 123.012 269.174Z" fill="#D07A09"/>
<path d="M169.179 269.174H164.868C162.425 269.174 160.557 267.306 160.557 264.862V260.551H169.179V269.174Z" fill="#D07A09"/>
<path d="M173.24 269.174H168.928V260.551H173.24C175.683 260.551 177.551 262.419 177.551 264.862C177.551 267.306 175.683 269.174 173.24 269.174Z" fill="#D07A09"/>
<path d="M189.982 269.174C187.539 269.174 185.671 267.306 185.671 264.862V260.551H194.294V264.862C194.294 267.306 192.425 269.174 189.982 269.174Z" fill="#D07A09"/>
<path d="M215.096 269.174C217.477 269.174 219.408 267.244 219.408 264.862C219.408 262.481 217.477 260.551 215.096 260.551C212.715 260.551 210.785 262.481 210.785 264.862C210.785 267.244 212.715 269.174 215.096 269.174Z" fill="#D07A09"/>
<path d="M231.839 269.174C229.396 269.174 227.528 267.306 227.528 264.862V260.551H236.15V264.862C236.15 267.306 234.282 269.174 231.839 269.174Z" fill="#D07A09"/>
<path d="M45.4509 84.7253H66.7978C76.8435 84.7253 85.2148 76.3527 85.2148 66.3055V44.9554C85.2148 34.4896 76.8435 26.1169 66.3793 26.1169H45.0323C34.9867 26.1169 26.6154 34.4896 26.6154 44.5367V65.8869C26.6154 76.3527 34.9867 84.7253 45.4509 84.7253ZM76.8435 46.2112V64.631C76.8435 70.9105 71.4021 76.3527 65.1236 76.3527H46.7066C40.0095 76.3527 34.9867 71.3291 34.9867 64.631V46.2112C34.9867 39.9318 40.4281 34.4896 46.7066 34.4896H65.1236C71.8207 34.4896 76.8435 39.5131 76.8435 46.2112Z" fill="#D07A09"/>
<path d="M229.621 84.7253H250.968C261.013 84.7253 269.385 76.3527 269.385 66.3055V44.9554C269.385 34.4896 261.013 26.1169 250.549 26.1169H229.202C219.156 26.1169 210.785 34.4896 210.785 44.5367V65.8869C210.785 76.3527 219.156 84.7253 229.621 84.7253ZM261.013 46.2112V64.631C261.013 70.9105 255.572 76.3527 249.293 76.3527H230.876C224.179 76.3527 219.156 71.3291 219.156 64.631V46.2112C219.156 39.9318 224.598 34.4896 230.876 34.4896H249.293C255.99 34.4896 261.013 39.5131 261.013 46.2112Z" fill="#D07A09"/>
<path d="M45.4509 268.923H66.7978C76.8435 268.923 85.2148 260.55 85.2148 250.503V229.153C85.2148 218.687 76.8435 210.315 66.3793 210.315H45.0323C34.9867 210.315 26.6154 218.687 26.6154 228.734V250.085C26.6154 260.55 34.9867 268.923 45.4509 268.923ZM76.8435 230.409V248.829C76.8435 255.108 71.4021 260.55 65.1236 260.55H46.7066C40.0095 260.55 34.9867 255.527 34.9867 248.829V230.409C34.9867 224.13 40.4281 218.687 46.7066 218.687H65.1236C71.8207 218.687 76.8435 223.711 76.8435 230.409Z" fill="#D07A09"/>
<path d="M68.4721 49.979V61.2821C68.4721 64.6311 65.1236 67.9802 61.3564 67.9802H50.4737C46.288 67.9802 43.358 65.0498 43.358 60.8635V49.979C43.358 46.2114 46.7066 42.8623 50.4737 42.8623H61.775C65.5421 42.8623 68.4721 45.7927 68.4721 49.979Z" fill="#D07A09"/>
<path d="M252.642 49.979V61.2821C252.642 64.6311 249.293 67.9802 245.526 67.9802H234.643C230.458 67.9802 227.528 65.0498 227.528 60.8635V49.979C227.528 46.2114 230.876 42.8623 234.643 42.8623H245.945C249.712 42.8623 252.642 45.7927 252.642 49.979Z" fill="#D07A09"/>
<path d="M68.4721 234.177V245.48C68.4721 248.829 65.1236 252.178 61.3564 252.178H50.4737C46.288 252.178 43.358 249.248 43.358 245.061V234.177C43.358 230.409 46.7066 227.06 50.4737 227.06H61.775C65.5421 227.06 68.4721 229.99 68.4721 234.177Z" fill="#D07A09"/>
</svg>
