<svg width="56" height="56" viewBox="0 0 56 56" fill="none" xmlns="http://www.w3.org/2000/svg">
<rect width="56" height="56" rx="16" fill="#FFAE48"/>
<path d="M22 20.9375H22C22.1544 20.9376 22.3064 20.8996 22.4426 20.8268C22.5787 20.754 22.6948 20.6488 22.7805 20.5203L22 20.9375ZM22 20.9375H18C17.7182 20.9375 17.448 21.0494 17.2487 21.2487C17.0494 21.448 16.9375 21.7182 16.9375 22V36C16.9375 36.2818 17.0494 36.552 17.2487 36.7513C17.448 36.9506 17.7182 37.0625 18 37.0625H38C38.2818 37.0625 38.552 36.9506 38.7513 36.7513C38.9506 36.552 39.0625 36.2818 39.0625 36V22C39.0625 21.7182 38.9506 21.448 38.7513 21.2487C38.552 21.0494 38.2818 20.9375 38 20.9375H34H34C33.8456 20.9376 33.6936 20.8996 33.5574 20.8268C33.4212 20.754 33.3052 20.6487 33.2195 20.5203C33.2195 20.5203 33.2195 20.5203 33.2195 20.5203L31.5158 17.9653L31.4972 17.9375H31.4638H24.535H24.5015L24.483 17.9653L22.7805 20.5203L22 20.9375ZM34.483 19.0347L34.5016 19.0625H34.535H38C38.7791 19.0625 39.5262 19.372 40.0771 19.9229C40.628 20.4738 40.9375 21.2209 40.9375 22V36C40.9375 36.7791 40.628 37.5262 40.0771 38.0771C39.5262 38.628 38.7791 38.9375 38 38.9375H18C17.2209 38.9375 16.4738 38.628 15.9229 38.0771C15.372 37.5262 15.0625 36.7791 15.0625 36V22C15.0625 21.2209 15.372 20.4738 15.9229 19.9229C16.4738 19.372 17.2209 19.0625 18 19.0625H21.4637H21.4972L21.5157 19.0347L23.2207 16.4797L23.1687 16.445L23.2207 16.4797C23.3063 16.3514 23.4222 16.2463 23.5581 16.1735C23.6941 16.1007 23.8459 16.0626 24 16.0625H32C32.1542 16.0626 32.3059 16.1007 32.4419 16.1735C32.5778 16.2463 32.6937 16.3514 32.7792 16.4797C32.7793 16.4797 32.7793 16.4797 32.7793 16.4797L34.483 19.0347ZM18 21H22L33.1675 20.555C33.2589 20.692 33.3827 20.8043 33.5279 20.8819C33.6732 20.9595 33.8353 21.0001 34 21H38C38.2652 21 38.5196 21.1054 38.7071 21.2929C38.8946 21.4804 39 21.7348 39 22V36C39 36.2652 38.8946 36.5196 38.7071 36.7071C38.5196 36.8946 38.2652 37 38 37H18C17.7348 37 17.4804 36.8946 17.2929 36.7071C17.1054 36.5196 17 36.2652 17 36V22C17 21.7348 17.1054 21.4804 17.2929 21.2929C17.4804 21.1054 17.7348 21 18 21ZM24.9791 23.9789C25.8733 23.3814 26.9245 23.0625 27.9999 23.0625C29.4416 23.0641 30.8237 23.6375 31.8431 24.6569C32.8625 25.6763 33.4359 27.0584 33.4375 28.5001C33.4375 29.5755 33.1186 30.6267 32.5211 31.5209C31.9236 32.4151 31.0744 33.112 30.0808 33.5236C29.0873 33.9351 27.994 34.0428 26.9392 33.833C25.8844 33.6232 24.9156 33.1053 24.1551 32.3449C23.3947 31.5844 22.8768 30.6156 22.667 29.5608C22.4572 28.506 22.5649 27.4127 22.9764 26.4192C23.388 25.4256 24.0849 24.5764 24.9791 23.9789ZM26.0208 31.4621C26.6066 31.8536 27.2954 32.0625 28 32.0625C28.9448 32.0625 29.851 31.6872 30.5191 31.0191C31.1872 30.351 31.5625 29.4448 31.5625 28.5C31.5625 27.7954 31.3536 27.1066 30.9621 26.5208C30.5707 25.9349 30.0143 25.4783 29.3633 25.2087C28.7123 24.939 27.996 24.8685 27.305 25.006C26.6139 25.1434 25.9792 25.4827 25.4809 25.9809C24.9827 26.4792 24.6434 27.1139 24.506 27.805C24.3685 28.496 24.439 29.2123 24.7087 29.8633C24.9783 30.5143 25.4349 31.0707 26.0208 31.4621Z" fill="white" stroke="white" stroke-width="0.125"/>
</svg>
