<svg width="24" height="24" viewBox="0 0 24 24" fill="none" xmlns="http://www.w3.org/2000/svg">
<g clip-path="url(#clip0_2661_757)">
<mask id="path-1-inside-1_2661_757" fill="white">
<path d="M19.5 3H4.5C2.019 3 0 5.019 0 7.5V16.5C0 18.981 2.019 21 4.5 21H19.5C21.981 21 24 18.981 24 16.5V7.5C24 5.019 21.981 3 19.5 3ZM23 16.5C23 18.43 21.43 20 19.5 20H4.5C2.57 20 1 18.43 1 16.5V7.5C1 5.57 2.57 4 4.5 4H19.5C21.43 4 23 5.57 23 7.5V16.5ZM19.5 7H4.5C4.224 7 4 7.224 4 7.5V11.5C4 11.776 4.224 12 4.5 12H19.5C19.776 12 20 11.776 20 11.5V7.5C20 7.224 19.776 7 19.5 7ZM19 11H5V8H19V11ZM7 14.5C7 14.776 6.776 15 6.5 15H4.5C4.224 15 4 14.776 4 14.5C4 14.224 4.224 14 4.5 14H6.5C6.776 14 7 14.224 7 14.5ZM12 14.5C12 14.776 11.776 15 11.5 15H9.5C9.224 15 9 14.776 9 14.5C9 14.224 9.224 14 9.5 14H11.5C11.776 14 12 14.224 12 14.5ZM17 14.5C17 14.776 16.776 15 16.5 15H14.5C14.224 15 14 14.776 14 14.5C14 14.224 14.224 14 14.5 14H16.5C16.776 14 17 14.224 17 14.5Z"/>
</mask>
<path d="M19.5 3H4.5C2.019 3 0 5.019 0 7.5V16.5C0 18.981 2.019 21 4.5 21H19.5C21.981 21 24 18.981 24 16.5V7.5C24 5.019 21.981 3 19.5 3ZM23 16.5C23 18.43 21.43 20 19.5 20H4.5C2.57 20 1 18.43 1 16.5V7.5C1 5.57 2.57 4 4.5 4H19.5C21.43 4 23 5.57 23 7.5V16.5ZM19.5 7H4.5C4.224 7 4 7.224 4 7.5V11.5C4 11.776 4.224 12 4.5 12H19.5C19.776 12 20 11.776 20 11.5V7.5C20 7.224 19.776 7 19.5 7ZM19 11H5V8H19V11ZM7 14.5C7 14.776 6.776 15 6.5 15H4.5C4.224 15 4 14.776 4 14.5C4 14.224 4.224 14 4.5 14H6.5C6.776 14 7 14.224 7 14.5ZM12 14.5C12 14.776 11.776 15 11.5 15H9.5C9.224 15 9 14.776 9 14.5C9 14.224 9.224 14 9.5 14H11.5C11.776 14 12 14.224 12 14.5ZM17 14.5C17 14.776 16.776 15 16.5 15H14.5C14.224 15 14 14.776 14 14.5C14 14.224 14.224 14 14.5 14H16.5C16.776 14 17 14.224 17 14.5Z" fill="#D8C3AF"/>
<path d="M19 11V32.3333H40.3333V11H19ZM5 11H-16.3333V32.3333H5V11ZM5 8V-13.3333H-16.3333V8H5ZM19 8H40.3333V-13.3333H19V8ZM19.5 -18.3333H4.5V24.3333H19.5V-18.3333ZM4.5 -18.3333C-9.76307 -18.3333 -21.3333 -6.76307 -21.3333 7.5H21.3333C21.3333 16.8011 13.8011 24.3333 4.5 24.3333V-18.3333ZM-21.3333 7.5V16.5H21.3333V7.5H-21.3333ZM-21.3333 16.5C-21.3333 30.7631 -9.76307 42.3333 4.5 42.3333V-0.333334C13.8011 -0.333334 21.3333 7.19893 21.3333 16.5H-21.3333ZM4.5 42.3333H19.5V-0.333334H4.5V42.3333ZM19.5 42.3333C33.7631 42.3333 45.3333 30.7631 45.3333 16.5H2.66667C2.66667 7.19893 10.1989 -0.333334 19.5 -0.333334V42.3333ZM45.3333 16.5V7.5H2.66667V16.5H45.3333ZM45.3333 7.5C45.3333 -6.76307 33.7631 -18.3333 19.5 -18.3333V24.3333C10.1989 24.3333 2.66667 16.8011 2.66667 7.5H45.3333ZM1.66667 16.5C1.66667 6.64792 9.64793 -1.33333 19.5 -1.33333V41.3333C33.2121 41.3333 44.3333 30.2121 44.3333 16.5H1.66667ZM19.5 -1.33333H4.5V41.3333H19.5V-1.33333ZM4.5 -1.33333C14.3521 -1.33333 22.3333 6.64792 22.3333 16.5H-20.3333C-20.3333 30.2121 -9.21208 41.3333 4.5 41.3333V-1.33333ZM22.3333 16.5V7.5H-20.3333V16.5H22.3333ZM22.3333 7.5C22.3333 17.3521 14.3521 25.3333 4.5 25.3333V-17.3333C-9.21208 -17.3333 -20.3333 -6.21208 -20.3333 7.5H22.3333ZM4.5 25.3333H19.5V-17.3333H4.5V25.3333ZM19.5 25.3333C9.64793 25.3333 1.66667 17.3521 1.66667 7.5H44.3333C44.3333 -6.21208 33.2121 -17.3333 19.5 -17.3333V25.3333ZM1.66667 7.5V16.5H44.3333V7.5H1.66667ZM19.5 -14.3333H4.5V28.3333H19.5V-14.3333ZM4.5 -14.3333C-7.55807 -14.3333 -17.3333 -4.55807 -17.3333 7.5H25.3333C25.3333 19.0061 16.0061 28.3333 4.5 28.3333V-14.3333ZM-17.3333 7.5V11.5H25.3333V7.5H-17.3333ZM-17.3333 11.5C-17.3333 23.5581 -7.55807 33.3333 4.5 33.3333V-9.33333C16.0061 -9.33333 25.3333 -0.00607491 25.3333 11.5H-17.3333ZM4.5 33.3333H19.5V-9.33333H4.5V33.3333ZM19.5 33.3333C31.5581 33.3333 41.3333 23.5581 41.3333 11.5H-1.33333C-1.33333 -0.00607491 7.99393 -9.33333 19.5 -9.33333V33.3333ZM41.3333 11.5V7.5H-1.33333V11.5H41.3333ZM41.3333 7.5C41.3333 -4.55807 31.5581 -14.3333 19.5 -14.3333V28.3333C7.99393 28.3333 -1.33333 19.0061 -1.33333 7.5H41.3333ZM19 -10.3333H5V32.3333H19V-10.3333ZM26.3333 11V8H-16.3333V11H26.3333ZM5 29.3333H19V-13.3333H5V29.3333ZM-2.33333 8V11H40.3333V8H-2.33333ZM-14.3333 14.5C-14.3333 2.99392 -5.00607 -6.33333 6.5 -6.33333V36.3333C18.5581 36.3333 28.3333 26.5581 28.3333 14.5H-14.3333ZM6.5 -6.33333H4.5V36.3333H6.5V-6.33333ZM4.5 -6.33333C16.0061 -6.33333 25.3333 2.99392 25.3333 14.5H-17.3333C-17.3333 26.5581 -7.55807 36.3333 4.5 36.3333V-6.33333ZM25.3333 14.5C25.3333 26.0061 16.0061 35.3333 4.5 35.3333V-7.33333C-7.55807 -7.33333 -17.3333 2.44192 -17.3333 14.5H25.3333ZM4.5 35.3333H6.5V-7.33333H4.5V35.3333ZM6.5 35.3333C-5.00607 35.3333 -14.3333 26.0061 -14.3333 14.5H28.3333C28.3333 2.44192 18.5581 -7.33333 6.5 -7.33333V35.3333ZM-9.33333 14.5C-9.33333 2.99392 -0.00607502 -6.33333 11.5 -6.33333V36.3333C23.5581 36.3333 33.3333 26.5581 33.3333 14.5H-9.33333ZM11.5 -6.33333H9.5V36.3333H11.5V-6.33333ZM9.5 -6.33333C21.0061 -6.33333 30.3333 2.99392 30.3333 14.5H-12.3333C-12.3333 26.5581 -2.55807 36.3333 9.5 36.3333V-6.33333ZM30.3333 14.5C30.3333 26.0061 21.0061 35.3333 9.5 35.3333V-7.33333C-2.55807 -7.33333 -12.3333 2.44192 -12.3333 14.5H30.3333ZM9.5 35.3333H11.5V-7.33333H9.5V35.3333ZM11.5 35.3333C-0.00607502 35.3333 -9.33333 26.0061 -9.33333 14.5H33.3333C33.3333 2.44192 23.5581 -7.33333 11.5 -7.33333V35.3333ZM-4.33333 14.5C-4.33333 2.99392 4.99393 -6.33333 16.5 -6.33333V36.3333C28.5581 36.3333 38.3333 26.5581 38.3333 14.5H-4.33333ZM16.5 -6.33333H14.5V36.3333H16.5V-6.33333ZM14.5 -6.33333C26.0061 -6.33333 35.3333 2.99392 35.3333 14.5H-7.33333C-7.33333 26.5581 2.44193 36.3333 14.5 36.3333V-6.33333ZM35.3333 14.5C35.3333 26.0061 26.0061 35.3333 14.5 35.3333V-7.33333C2.44193 -7.33333 -7.33333 2.44192 -7.33333 14.5H35.3333ZM14.5 35.3333H16.5V-7.33333H14.5V35.3333ZM16.5 35.3333C4.99393 35.3333 -4.33333 26.0061 -4.33333 14.5H38.3333C38.3333 2.44192 28.5581 -7.33333 16.5 -7.33333V35.3333Z" fill="#D8C3AF" mask="url(#path-1-inside-1_2661_757)"/>
</g>
<defs>
<clipPath id="clip0_2661_757">
<rect width="24" height="24" fill="white"/>
</clipPath>
</defs>
</svg>
