<svg width="258" height="257" viewBox="0 0 258 257" fill="none" xmlns="http://www.w3.org/2000/svg">
<path opacity="0.6" d="M78.4759 15.2483C82.6868 15.2483 86.1003 11.8348 86.1003 7.62414C86.1003 3.41344 82.6868 0 78.4759 0C74.2651 0 70.8516 3.41344 70.8516 7.62414C70.8516 11.8348 74.2651 15.2483 78.4759 15.2483Z" fill="#F1C07F"/>
<path opacity="0.6" d="M208.476 45.2483C212.687 45.2483 216.1 41.8348 216.1 37.6241C216.1 33.4134 212.687 30 208.476 30C204.265 30 200.852 33.4134 200.852 37.6241C200.852 41.8348 204.265 45.2483 208.476 45.2483Z" fill="#F7A571"/>
<path opacity="0.6" d="M18.4759 55.2483C22.6868 55.2483 26.1003 51.8348 26.1003 47.6241C26.1003 43.4134 22.6868 40 18.4759 40C14.2651 40 10.8516 43.4134 10.8516 47.6241C10.8516 51.8348 14.2651 55.2483 18.4759 55.2483Z" fill="#F1C07F"/>
<path opacity="0.5" d="M252.5 256.297C255.067 256.297 257.148 254.215 257.148 251.648C257.148 249.081 255.067 247 252.5 247C249.933 247 247.852 249.081 247.852 251.648C247.852 254.215 249.933 256.297 252.5 256.297Z" fill="#F1C07F"/>
<path opacity="0.5" d="M182.5 236.297C185.067 236.297 187.148 234.215 187.148 231.648C187.148 229.081 185.067 227 182.5 227C179.933 227 177.852 229.081 177.852 231.648C177.852 234.215 179.933 236.297 182.5 236.297Z" fill="#FFDAD6"/>
<path d="M232.5 196.297C235.067 196.297 237.148 194.215 237.148 191.648C237.148 189.081 235.067 187 232.5 187C229.933 187 227.852 189.081 227.852 191.648C227.852 194.215 229.933 196.297 232.5 196.297Z" fill="#FFAE48"/>
<path opacity="0.25" d="M5.50002 207.297C8.0673 207.297 10.1485 205.215 10.1485 202.648C10.1485 200.081 8.0673 198 5.50002 198C2.93275 198 0.851562 200.081 0.851562 202.648C0.851562 205.215 2.93275 207.297 5.50002 207.297Z" fill="#F1C07F"/>
<path d="M45.5 227.297C48.0673 227.297 50.1485 225.215 50.1485 222.648C50.1485 220.081 48.0673 218 45.5 218C42.9327 218 40.8516 220.081 40.8516 222.648C40.8516 225.215 42.9327 227.297 45.5 227.297Z" fill="#FFAE48"/>
<path d="M128 247C185.438 247 232 200.438 232 143C232 85.5624 185.438 39 128 39C70.5624 39 24 85.5624 24 143C24 200.438 70.5624 247 128 247Z" fill="#FFAE48"/>
<path d="M117.617 183C115.257 183.004 112.959 182.238 111.07 180.819L110.953 180.731L86.2914 161.82C85.1492 160.943 84.1907 159.848 83.4706 158.599C82.7505 157.35 82.2828 155.971 82.0944 154.541C81.9059 153.11 82.0003 151.657 82.3722 150.263C82.7441 148.87 83.3862 147.563 84.2618 146.418C85.1375 145.273 86.2295 144.312 87.4756 143.591C88.7216 142.869 90.0973 142.4 91.5241 142.211C92.9509 142.022 94.4009 142.117 95.7912 142.49C97.1815 142.862 98.485 143.506 99.6271 144.384L115.601 156.662L153.347 107.3C154.222 106.156 155.314 105.195 156.56 104.474C157.805 103.752 159.18 103.283 160.606 103.095C162.033 102.906 163.482 103 164.872 103.373C166.261 103.746 167.564 104.389 168.706 105.266L168.709 105.269L168.475 105.595L168.716 105.269C171.019 107.043 172.526 109.661 172.906 112.548C173.286 115.435 172.507 118.355 170.742 120.668L126.344 178.703C125.317 180.04 123.996 181.122 122.484 181.865C120.973 182.608 119.311 182.992 117.627 182.987L117.617 183Z" fill="white"/>
</svg>
