<svg width="36" height="36" viewBox="0 0 36 36" fill="none" xmlns="http://www.w3.org/2000/svg">
<rect x="0.75" y="0.75" width="34.5" height="34.5" rx="7.25" stroke="#FFAE48" stroke-width="1.5"/>
<path d="M21.3096 18.3096L21.3096 18.3096L16.3096 23.3096C16.2689 23.3502 16.2207 23.3825 16.1676 23.4045C16.1145 23.4265 16.0575 23.4378 16 23.4378C15.9425 23.4378 15.8856 23.4265 15.8325 23.4045C15.7794 23.3825 15.7311 23.3502 15.6905 23.3096C15.6498 23.2689 15.6176 23.2207 15.5956 23.1676C15.5736 23.1145 15.5623 23.0575 15.5623 23C15.5623 22.9425 15.5736 22.8856 15.5956 22.8325C15.6176 22.7794 15.6498 22.7311 15.6905 22.6905L20.3374 18.0442L20.3816 18L20.3374 17.9558L15.6905 13.3096C15.6905 13.3096 15.6905 13.3096 15.6905 13.3096C15.6084 13.2275 15.5623 13.1161 15.5623 13C15.5623 12.8839 15.6084 12.7726 15.6905 12.6905C15.7726 12.6084 15.8839 12.5623 16 12.5623C16.1161 12.5623 16.2275 12.6084 16.3096 12.6905L21.3096 17.6905L21.3096 17.6905C21.3503 17.7311 21.3826 17.7794 21.4046 17.8325C21.4266 17.8856 21.4379 17.9425 21.4379 18C21.4379 18.0575 21.4266 18.1145 21.4046 18.1676C21.3826 18.2207 21.3503 18.2689 21.3096 18.3096Z" fill="#FFAE48" stroke="#FFAE48" stroke-width="0.125"/>
</svg>
