<svg width="24" height="24" viewBox="0 0 24 24" fill="none" xmlns="http://www.w3.org/2000/svg">
<path d="M12.4341 22.3641C13.856 21.3147 15.1568 20.1104 16.3125 18.7734C18.8859 15.8138 20.25 12.6938 20.25 9.75M12.4341 22.3641L12.3982 22.3129C12.398 22.313 12.3978 22.3132 12.3976 22.3133M12.4341 22.3641L12.397 22.3138C12.3972 22.3136 12.3974 22.3135 12.3976 22.3133M12.4341 22.3641C12.308 22.4524 12.1577 22.4998 12.0037 22.4998C11.8498 22.4998 11.6995 22.4524 11.5734 22.3641M12.3976 22.3133C13.8155 21.2668 15.1127 20.0658 16.2652 18.7326L16.2653 18.7324C18.8322 15.7803 20.1875 12.6743 20.1875 9.75007M12.3976 22.3133C12.2821 22.394 12.1446 22.4373 12.0037 22.4373C11.8629 22.4373 11.7254 22.394 11.6099 22.3133M20.1875 9.75007L20.25 9.75M20.1875 9.75007C20.1875 9.75005 20.1875 9.75002 20.1875 9.75H20.25M20.1875 9.75007C20.185 7.57935 19.3216 5.49824 17.7867 3.9633C16.2518 2.42839 14.1707 1.56498 12 1.5625M20.25 9.75C20.2475 7.56273 19.3775 5.46575 17.8309 3.91911C16.2843 2.37247 14.1873 1.50248 12 1.5M12 1.5L12.0001 1.5625C12 1.5625 12 1.5625 12 1.5625M12 1.5C9.81273 1.50248 7.71575 2.37247 6.16911 3.91911C4.62247 5.46575 3.75248 7.56273 3.75 9.75M12 1.5L11.9999 1.5625C12 1.5625 12 1.5625 12 1.5625M12 1.5625C9.8293 1.56498 7.74822 2.42839 6.2133 3.9633C4.67838 5.49823 3.81497 7.57932 3.8125 9.75003M3.75 9.75H3.8125C3.8125 9.75001 3.8125 9.75002 3.8125 9.75003M3.75 9.75C3.75 12.6938 5.11031 15.8138 7.6875 18.7734C8.84552 20.1108 10.1489 21.3151 11.5734 22.3641M3.75 9.75L3.8125 9.75007C3.8125 9.75006 3.8125 9.75005 3.8125 9.75003M3.8125 9.75003C3.81251 12.6743 5.16404 15.7803 7.73463 18.7324L7.73475 18.7325C8.88957 20.0662 10.1893 21.2672 11.6099 22.3133M11.6099 22.3133C11.6097 22.3132 11.6095 22.313 11.6093 22.3129L11.5734 22.3641M11.6099 22.3133C11.6101 22.3134 11.6103 22.3136 11.6105 22.3137L11.5734 22.3641M11.9614 20.8616L12 20.892L12.0386 20.8616C12.8155 20.2506 14.5075 18.8227 16.0057 16.8743C17.5033 14.9268 18.8125 12.4525 18.8125 9.75C18.8125 7.94321 18.0948 6.21043 16.8172 4.93283C15.5396 3.65524 13.8068 2.9375 12 2.9375C10.1932 2.9375 8.46043 3.65524 7.18283 4.93283C5.90524 6.21043 5.1875 7.94321 5.1875 9.75C5.1875 12.4534 6.49675 14.9277 7.99432 16.875C9.49253 18.8231 11.1845 20.2506 11.9614 20.8616ZM9.95133 6.68396C10.5577 6.27877 11.2707 6.0625 12 6.0625C12.978 6.0625 13.9159 6.451 14.6075 7.14254C15.299 7.83408 15.6875 8.77201 15.6875 9.75C15.6875 10.4793 15.4712 11.1923 15.066 11.7987C14.6609 12.4051 14.0849 12.8777 13.4111 13.1568C12.7373 13.4359 11.9959 13.5089 11.2806 13.3666C10.5653 13.2244 9.90825 12.8732 9.39254 12.3575C8.87684 11.8418 8.52564 11.1847 8.38335 10.4694C8.24107 9.75409 8.3141 9.01266 8.59319 8.33886C8.87229 7.66505 9.34493 7.08914 9.95133 6.68396ZM10.7152 11.6728C11.0955 11.9269 11.5426 12.0625 12 12.0625C12.6133 12.0625 13.2015 11.8189 13.6352 11.3852C14.0689 10.9515 14.3125 10.3633 14.3125 9.75C14.3125 9.29263 14.1769 8.84553 13.9228 8.46524C13.6687 8.08496 13.3075 7.78856 12.885 7.61353C12.4624 7.4385 11.9974 7.39271 11.5489 7.48193C11.1003 7.57116 10.6882 7.79141 10.3648 8.11482C10.0414 8.43822 9.82116 8.85027 9.73193 9.29885C9.64271 9.74743 9.6885 10.2124 9.86353 10.635C10.0386 11.0575 10.335 11.4187 10.7152 11.6728Z" fill="#D8C3AF" stroke="#D8C3AF" stroke-width="0.125"/>
</svg>
