<svg width="24" height="24" viewBox="0 0 24 24" fill="none" xmlns="http://www.w3.org/2000/svg">
<path d="M18.7786 5.09697L18.7782 5.0966C16.9746 3.31063 14.5383 2.3099 12.0001 2.31251L12 2.31251L11.9 2.31251C9.34815 2.33885 6.90976 3.37106 5.11457 5.1849C3.31932 6.99882 2.31236 9.44789 2.3125 12C2.3125 16.0028 4.78577 19.3611 8.77328 20.7695C9.21621 20.9257 9.69013 20.9733 10.1553 20.9085C10.6204 20.8437 11.0633 20.6684 11.4467 20.3971C11.8301 20.1258 12.1428 19.7666 12.3587 19.3495C12.5746 18.9324 12.6874 18.4697 12.6875 18L18.7786 5.09697ZM18.7786 5.09697C19.6906 5.98493 20.4173 7.04506 20.9167 8.21593C21.416 9.38679 21.678 10.6451 21.6875 11.918V11.918C21.6938 12.6701 21.6128 13.4203 21.4462 14.1537L21.4462 14.1539C21.301 14.8041 20.9379 15.3852 20.417 15.8006C19.8961 16.216 19.2487 16.4407 18.5825 16.4375H18.5822M18.7786 5.09697L18.5822 16.4375M18.5822 16.4375H14.25C13.8356 16.4375 13.4382 16.6021 13.1451 16.8952C12.8521 17.1882 12.6875 17.5856 12.6875 18L18.5822 16.4375ZM18.582 15.0625C18.9354 15.0638 19.2786 14.9445 19.555 14.7242C19.8183 14.5144 20.0058 14.225 20.0901 13.9H20.0946L20.1056 13.8513C20.2481 13.2206 20.3172 12.5757 20.3116 11.9291L20.3116 11.9289C20.2843 9.73937 19.3976 7.64825 17.8426 6.10653C16.2876 4.56481 14.189 3.69601 11.9993 3.68751H11.9991L11.9147 3.6875L11.914 3.68751C9.72436 3.71015 7.63206 4.59592 6.09171 6.15237C4.55135 7.70882 3.68738 9.81021 3.6875 12C3.6875 15.4038 5.81487 18.2665 9.2314 19.4718L9.23145 19.4718C9.46687 19.5546 9.71872 19.5798 9.9659 19.5453C10.2131 19.5109 10.4484 19.4177 10.6522 19.2736C10.8559 19.1295 11.0222 18.9386 11.1371 18.7171C11.252 18.4955 11.3121 18.2497 11.3125 18.0001V18C11.3125 17.2209 11.622 16.4738 12.1729 15.9229C12.7238 15.372 13.4709 15.0625 14.25 15.0625H18.582ZM18.582 15.0625L18.5822 15M18.582 15.0625H18.5822V15M18.5822 15C18.9214 15.0012 19.2508 14.8867 19.516 14.6753C19.7813 14.464 19.9664 14.1684 20.0409 13.8375L18.5822 15ZM13.0625 7.12501C13.0625 7.33515 13.0002 7.54057 12.8834 7.7153C12.7667 7.89003 12.6007 8.02621 12.4066 8.10663C12.2125 8.18705 11.9988 8.20809 11.7927 8.16709C11.5866 8.12609 11.3973 8.0249 11.2487 7.87631C11.1001 7.72771 10.9989 7.53839 10.9579 7.33229C10.9169 7.12618 10.938 6.91255 11.0184 6.7184C11.0988 6.52426 11.235 6.35832 11.4097 6.24157C11.5844 6.12482 11.7899 6.06251 12 6.06251C12.2818 6.06251 12.552 6.17445 12.7513 6.3737C12.9506 6.57296 13.0625 6.84321 13.0625 7.12501ZM8.9375 9.37501C8.9375 9.58515 8.87519 9.79057 8.75844 9.9653C8.64169 10.14 8.47575 10.2762 8.2816 10.3566C8.08745 10.437 7.87382 10.4581 7.66772 10.4171C7.46161 10.3761 7.27229 10.2749 7.1237 10.1263C6.97511 9.97771 6.87391 9.78839 6.83291 9.58229C6.79192 9.37618 6.81296 9.16255 6.89338 8.9684C6.9738 8.77426 7.10998 8.60832 7.28471 8.49157C7.45943 8.37482 7.66486 8.31251 7.875 8.31251C8.15679 8.31251 8.42704 8.42445 8.6263 8.6237C8.82556 8.82296 8.9375 9.09321 8.9375 9.37501ZM8.9375 14.625C8.9375 14.8351 8.87519 15.0406 8.75844 15.2153C8.64169 15.39 8.47575 15.5262 8.2816 15.6066C8.08745 15.687 7.87382 15.7081 7.66772 15.6671C7.46161 15.6261 7.27229 15.5249 7.1237 15.3763C6.97511 15.2277 6.87391 15.0384 6.83291 14.8323C6.79192 14.6262 6.81296 14.4126 6.89338 14.2184C6.9738 14.0243 7.10998 13.8583 7.28471 13.7416C7.45943 13.6248 7.66486 13.5625 7.875 13.5625C8.15679 13.5625 8.42704 13.6744 8.6263 13.8737C8.82556 14.073 8.9375 14.3432 8.9375 14.625ZM17.1875 9.37501C17.1875 9.58515 17.1252 9.79057 17.0084 9.9653C16.8917 10.14 16.7257 10.2762 16.5316 10.3566C16.3375 10.437 16.1238 10.4581 15.9177 10.4171C15.7116 10.3761 15.5223 10.2749 15.3737 10.1263C15.2251 9.97771 15.1239 9.78839 15.0829 9.58229C15.0419 9.37618 15.063 9.16255 15.1434 8.9684C15.2238 8.77426 15.36 8.60832 15.5347 8.49157C15.7094 8.37482 15.9149 8.31251 16.125 8.31251C16.4068 8.31251 16.677 8.42445 16.8763 8.6237C17.0756 8.82296 17.1875 9.09321 17.1875 9.37501Z" fill="#D8C3AF" stroke="#D8C3AF" stroke-width="0.125"/>
</svg>
