<svg width="264" height="274" viewBox="0 0 264 274" fill="none" xmlns="http://www.w3.org/2000/svg">
<rect x="0.5" width="263" height="274" rx="32" fill="white"/>
<path d="M254.952 10.96H11.4583V254.491H254.952V10.96Z" fill="white"/>
<path d="M86.2087 18.7407H77.5862V14.4288C77.5862 11.9854 79.4544 10.1169 81.8974 10.1169C84.3405 10.1169 86.2087 11.9854 86.2087 14.4288V18.7407Z" fill="#D07A09"/>
<path d="M102.951 18.7407H94.3289V14.4288C94.3289 11.9854 96.1971 10.1169 98.6401 10.1169C101.083 10.1169 102.951 11.9854 102.951 14.4288V18.7407Z" fill="#D07A09"/>
<path d="M115.383 18.7407C117.764 18.7407 119.694 16.8102 119.694 14.4288C119.694 12.0474 117.764 10.1169 115.383 10.1169C113.002 10.1169 111.072 12.0474 111.072 14.4288C111.072 16.8102 113.002 18.7407 115.383 18.7407Z" fill="#D07A09"/>
<path d="M136.437 18.7407H127.814V14.4288C127.814 11.9854 129.683 10.1169 132.126 10.1169C134.569 10.1169 136.437 11.9854 136.437 14.4288V18.7407Z" fill="#D07A09"/>
<path d="M161.551 18.7407H152.928V14.4288C152.928 11.9854 154.797 10.1169 157.24 10.1169H161.551V18.7407Z" fill="#D07A09"/>
<path d="M165.611 18.7407H161.3V10.1169H165.611C168.054 10.1169 169.922 11.9854 169.922 14.4288C169.922 16.8723 168.054 18.7407 165.611 18.7407Z" fill="#D07A09"/>
<path d="M182.354 18.7407C184.735 18.7407 186.665 16.8102 186.665 14.4288C186.665 12.0474 184.735 10.1169 182.354 10.1169C179.973 10.1169 178.042 12.0474 178.042 14.4288C178.042 16.8102 179.973 18.7407 182.354 18.7407Z" fill="#D07A09"/>
<path d="M86.2087 18.4895H77.5862V27.1133H86.2087V18.4895Z" fill="#D07A09"/>
<path d="M94.58 18.4895H85.9575V27.1133H94.58V18.4895Z" fill="#D07A09"/>
<path d="M102.951 18.4895H94.3289V27.1133H102.951V18.4895Z" fill="#D07A09"/>
<path d="M111.323 27.1133H102.7V18.4895H107.012C109.455 18.4895 111.323 20.358 111.323 22.8014V27.1133Z" fill="#D07A09"/>
<path d="M136.437 27.1133H132.126C129.683 27.1133 127.814 25.2448 127.814 22.8014V18.4895H136.437V27.1133Z" fill="#D07A09"/>
<path d="M144.808 18.4895H136.186V27.1133H144.808V18.4895Z" fill="#D07A09"/>
<path d="M153.179 18.4895H144.557V27.1133H153.179V18.4895Z" fill="#D07A09"/>
<path d="M157.24 27.1133H152.928V18.4895H161.551V22.8014C161.551 25.2448 159.683 27.1133 157.24 27.1133Z" fill="#D07A09"/>
<path d="M178.294 27.1133H169.671V22.8014C169.671 20.358 171.539 18.4895 173.982 18.4895C176.425 18.4895 178.294 20.358 178.294 22.8014V27.1133Z" fill="#D07A09"/>
<path d="M81.8974 35.4861C79.4544 35.4861 77.5862 33.6176 77.5862 31.1742V26.8623H86.2087V31.1742C86.2087 33.6176 84.3405 35.4861 81.8974 35.4861Z" fill="#D07A09"/>
<path d="M111.323 35.4861H107.012C104.568 35.4861 102.7 33.6176 102.7 31.1742V26.8623H111.323V35.4861Z" fill="#D07A09"/>
<path d="M115.383 35.4861H111.072V26.8623H115.383C117.826 26.8623 119.694 28.7308 119.694 31.1742C119.694 33.6176 117.826 35.4861 115.383 35.4861Z" fill="#D07A09"/>
<path d="M140.497 35.4861C138.054 35.4861 136.186 33.6176 136.186 31.1742V26.8623H144.808V31.1742C144.808 33.6176 142.94 35.4861 140.497 35.4861Z" fill="#D07A09"/>
<path d="M169.922 35.4861H165.611C163.168 35.4861 161.3 33.6176 161.3 31.1742C161.3 28.7308 163.168 26.8623 165.611 26.8623H169.922V35.4861Z" fill="#D07A09"/>
<path d="M178.294 26.8623H169.671V35.4861H178.294V26.8623Z" fill="#D07A09"/>
<path d="M182.354 35.4861H178.042V26.8623H182.354C184.797 26.8623 186.665 28.7308 186.665 31.1742C186.665 33.6176 184.797 35.4861 182.354 35.4861Z" fill="#D07A09"/>
<path d="M102.951 43.8587H94.3289V39.5468C94.3289 37.1034 96.1971 35.2349 98.6401 35.2349C101.083 35.2349 102.951 37.1034 102.951 39.5468V43.8587Z" fill="#D07A09"/>
<path d="M128.065 43.8587H119.443V39.5468C119.443 37.1034 121.311 35.2349 123.754 35.2349H128.065V43.8587Z" fill="#D07A09"/>
<path d="M132.126 43.8587H127.814V35.2349H132.126C134.569 35.2349 136.437 37.1034 136.437 39.5468C136.437 41.9902 134.569 43.8587 132.126 43.8587Z" fill="#D07A09"/>
<path d="M153.179 43.8587H144.557V39.5468C144.557 37.1034 146.425 35.2349 148.868 35.2349H153.179V43.8587Z" fill="#D07A09"/>
<path d="M157.24 43.8587H152.928V35.2349H157.24C159.683 35.2349 161.551 37.1034 161.551 39.5468C161.551 41.9902 159.683 43.8587 157.24 43.8587Z" fill="#D07A09"/>
<path d="M178.294 35.2349H169.671V43.8587H178.294V35.2349Z" fill="#D07A09"/>
<path d="M94.58 52.2312H85.9575V47.9193C85.9575 45.4759 87.8257 43.6074 90.2688 43.6074H94.58V52.2312Z" fill="#D07A09"/>
<path d="M102.951 43.6074H94.3289V52.2312H102.951V43.6074Z" fill="#D07A09"/>
<path d="M111.323 43.6074H102.7V52.2312H111.323V43.6074Z" fill="#D07A09"/>
<path d="M119.694 43.6074H111.072V52.2312H119.694V43.6074Z" fill="#D07A09"/>
<path d="M128.065 43.6074H119.443V52.2312H128.065V43.6074Z" fill="#D07A09"/>
<path d="M153.179 43.6074H144.557V52.2312H153.179V43.6074Z" fill="#D07A09"/>
<path d="M169.922 52.2312H161.3V47.9193C161.3 45.4759 163.168 43.6074 165.611 43.6074H169.922V52.2312Z" fill="#D07A09"/>
<path d="M173.982 52.2312H169.671V43.6074H178.294V47.9193C178.294 50.3627 176.425 52.2312 173.982 52.2312Z" fill="#D07A09"/>
<path d="M86.2087 60.6038H77.5862V56.2919C77.5862 53.8485 79.4544 51.98 81.8974 51.98H86.2087V60.6038Z" fill="#D07A09"/>
<path d="M94.58 51.98H85.9575V60.6038H94.58V51.98Z" fill="#D07A09"/>
<path d="M102.951 51.98H94.3289V60.6038H102.951V51.98Z" fill="#D07A09"/>
<path d="M119.694 51.98H111.072V60.6038H119.694V51.98Z" fill="#D07A09"/>
<path d="M123.754 60.6038H119.443V51.98H128.065V56.2919C128.065 58.7353 126.197 60.6038 123.754 60.6038Z" fill="#D07A09"/>
<path d="M144.808 60.6038H140.497C138.054 60.6038 136.186 58.7353 136.186 56.2919C136.186 53.8485 138.054 51.98 140.497 51.98H144.808V60.6038Z" fill="#D07A09"/>
<path d="M153.179 51.98H144.557V60.6038H153.179V51.98Z" fill="#D07A09"/>
<path d="M169.922 51.98H161.3V60.6038H169.922V51.98Z" fill="#D07A09"/>
<path d="M86.2087 60.3528H77.5862V68.9766H86.2087V60.3528Z" fill="#D07A09"/>
<path d="M102.951 60.3528H94.3289V68.9766H102.951V60.3528Z" fill="#D07A09"/>
<path d="M119.694 60.3528H111.072V68.9766H119.694V60.3528Z" fill="#D07A09"/>
<path d="M132.126 68.9766C134.507 68.9766 136.437 67.0461 136.437 64.6647C136.437 62.2833 134.507 60.3528 132.126 60.3528C129.745 60.3528 127.814 62.2833 127.814 64.6647C127.814 67.0461 129.745 68.9766 132.126 68.9766Z" fill="#D07A09"/>
<path d="M153.179 60.3528H144.557V68.9766H153.179V60.3528Z" fill="#D07A09"/>
<path d="M165.611 68.9766C163.168 68.9766 161.3 67.1081 161.3 64.6647V60.3528H169.922V64.6647C169.922 67.1081 168.054 68.9766 165.611 68.9766Z" fill="#D07A09"/>
<path d="M182.354 68.9766C184.735 68.9766 186.665 67.0461 186.665 64.6647C186.665 62.2833 184.735 60.3528 182.354 60.3528C179.973 60.3528 178.042 62.2833 178.042 64.6647C178.042 67.0461 179.973 68.9766 182.354 68.9766Z" fill="#D07A09"/>
<path d="M86.2087 68.7253H77.5862V77.3491H86.2087V68.7253Z" fill="#D07A09"/>
<path d="M102.951 77.3491H98.6401C96.1971 77.3491 94.3289 75.4807 94.3289 73.0372V68.7253H102.951V77.3491Z" fill="#D07A09"/>
<path d="M111.323 68.7253H102.7V77.3491H111.323V68.7253Z" fill="#D07A09"/>
<path d="M115.383 77.3491H111.072V68.7253H119.694V73.0372C119.694 75.4807 117.826 77.3491 115.383 77.3491Z" fill="#D07A09"/>
<path d="M144.808 77.3491H136.186V73.0372C136.186 70.5938 138.054 68.7253 140.497 68.7253H144.808V77.3491Z" fill="#D07A09"/>
<path d="M153.179 68.7253H144.557V77.3491H153.179V68.7253Z" fill="#D07A09"/>
<path d="M173.982 77.3491C176.363 77.3491 178.294 75.4186 178.294 73.0372C178.294 70.6558 176.363 68.7253 173.982 68.7253C171.601 68.7253 169.671 70.6558 169.671 73.0372C169.671 75.4186 171.601 77.3491 173.982 77.3491Z" fill="#D07A09"/>
<path d="M35.9805 85.7217H31.6693C29.2262 85.7217 27.358 83.8532 27.358 81.4098C27.358 78.9664 29.2262 77.0979 31.6693 77.0979H35.9805V85.7217Z" fill="#D07A09"/>
<path d="M44.3519 77.0979H35.7294V85.7217H44.3519V77.0979Z" fill="#D07A09"/>
<path d="M48.412 85.7217H44.1008V77.0979H48.412C50.8551 77.0979 52.7233 78.9664 52.7233 81.4098C52.7233 83.8532 50.8551 85.7217 48.412 85.7217Z" fill="#D07A09"/>
<path d="M65.1548 85.7217C67.5358 85.7217 69.466 83.7912 69.466 81.4098C69.466 79.0284 67.5358 77.0979 65.1548 77.0979C62.7737 77.0979 60.8435 79.0284 60.8435 81.4098C60.8435 83.7912 62.7737 85.7217 65.1548 85.7217Z" fill="#D07A09"/>
<path d="M81.8974 85.7217C79.4544 85.7217 77.5862 83.8532 77.5862 81.4098V77.0979H86.2087V81.4098C86.2087 83.8532 84.3405 85.7217 81.8974 85.7217Z" fill="#D07A09"/>
<path d="M128.065 85.7217H123.754C121.311 85.7217 119.443 83.8532 119.443 81.4098C119.443 78.9664 121.311 77.0979 123.754 77.0979H128.065V85.7217Z" fill="#D07A09"/>
<path d="M136.437 77.0979H127.814V85.7217H136.437V77.0979Z" fill="#D07A09"/>
<path d="M144.808 77.0979H136.186V85.7217H144.808V77.0979Z" fill="#D07A09"/>
<path d="M153.179 77.0979H144.557V85.7217H153.179V77.0979Z" fill="#D07A09"/>
<path d="M165.611 85.7217C167.992 85.7217 169.922 83.7912 169.922 81.4098C169.922 79.0284 167.992 77.0979 165.611 77.0979C163.23 77.0979 161.3 79.0284 161.3 81.4098C161.3 83.7912 163.23 85.7217 165.611 85.7217Z" fill="#D07A09"/>
<path d="M195.036 85.7217H186.414V81.4098C186.414 78.9664 188.282 77.0979 190.725 77.0979H195.036V85.7217Z" fill="#D07A09"/>
<path d="M203.408 77.0979H194.785V85.7217H203.408V77.0979Z" fill="#D07A09"/>
<path d="M211.779 85.7217H203.156V77.0979H207.468C209.911 77.0979 211.779 78.9664 211.779 81.4098V85.7217Z" fill="#D07A09"/>
<path d="M236.893 85.7217H228.271V81.4098C228.271 78.9664 230.139 77.0979 232.582 77.0979H236.893V85.7217Z" fill="#D07A09"/>
<path d="M245.264 77.0979H236.642V85.7217H245.264V77.0979Z" fill="#D07A09"/>
<path d="M253.636 85.7217H245.013V77.0979H249.324C251.768 77.0979 253.636 78.9664 253.636 81.4098V85.7217Z" fill="#D07A09"/>
<path d="M44.3519 85.4707H35.7294V94.0945H44.3519V85.4707Z" fill="#D07A09"/>
<path d="M94.58 94.0945H90.2688C87.8257 94.0945 85.9575 92.226 85.9575 89.7826C85.9575 87.3392 87.8257 85.4707 90.2688 85.4707H94.58V94.0945Z" fill="#D07A09"/>
<path d="M102.951 94.0945H94.3289V85.4707H98.6401C101.083 85.4707 102.951 87.3392 102.951 89.7826V94.0945Z" fill="#D07A09"/>
<path d="M153.179 85.4707H144.557V94.0945H153.179V85.4707Z" fill="#D07A09"/>
<path d="M157.24 94.0945H152.928V85.4707H157.24C159.683 85.4707 161.551 87.3392 161.551 89.7826C161.551 92.226 159.683 94.0945 157.24 94.0945Z" fill="#D07A09"/>
<path d="M195.036 85.4707H186.414V94.0945H195.036V85.4707Z" fill="#D07A09"/>
<path d="M211.779 85.4707H203.156V94.0945H211.779V85.4707Z" fill="#D07A09"/>
<path d="M220.15 85.4707H211.528V94.0945H220.15V85.4707Z" fill="#D07A09"/>
<path d="M228.522 85.4707H219.899V94.0945H228.522V85.4707Z" fill="#D07A09"/>
<path d="M236.893 85.4707H228.271V94.0945H236.893V85.4707Z" fill="#D07A09"/>
<path d="M249.324 94.0945C246.881 94.0945 245.013 92.226 245.013 89.7826V85.4707H253.636V89.7826C253.636 92.226 251.768 94.0945 249.324 94.0945Z" fill="#D07A09"/>
<path d="M23.2979 102.467C25.679 102.467 27.6092 100.537 27.6092 98.1552C27.6092 95.7738 25.679 93.8433 23.2979 93.8433C20.9169 93.8433 18.9867 95.7738 18.9867 98.1552C18.9867 100.537 20.9169 102.467 23.2979 102.467Z" fill="#D07A09"/>
<path d="M44.3519 93.8433H35.7294V102.467H44.3519V93.8433Z" fill="#D07A09"/>
<path d="M52.7233 93.8433H44.1008V102.467H52.7233V93.8433Z" fill="#D07A09"/>
<path d="M61.0946 93.8433H52.4721V102.467H61.0946V93.8433Z" fill="#D07A09"/>
<path d="M65.1548 102.467H60.8435V93.8433H65.1548C67.5978 93.8433 69.466 95.7118 69.466 98.1552C69.466 100.599 67.5978 102.467 65.1548 102.467Z" fill="#D07A09"/>
<path d="M102.951 93.8433H94.3289V102.467H102.951V93.8433Z" fill="#D07A09"/>
<path d="M119.694 102.467H111.072V98.1552C111.072 95.7118 112.94 93.8433 115.383 93.8433H119.694V102.467Z" fill="#D07A09"/>
<path d="M128.065 93.8433H119.443V102.467H128.065V93.8433Z" fill="#D07A09"/>
<path d="M136.437 93.8433H127.814V102.467H136.437V93.8433Z" fill="#D07A09"/>
<path d="M144.808 93.8433H136.186V102.467H144.808V93.8433Z" fill="#D07A09"/>
<path d="M153.179 93.8433H144.557V102.467H153.179V93.8433Z" fill="#D07A09"/>
<path d="M195.036 93.8433H186.414V102.467H195.036V93.8433Z" fill="#D07A09"/>
<path d="M203.408 93.8433H194.785V102.467H203.408V93.8433Z" fill="#D07A09"/>
<path d="M211.779 93.8433H203.156V102.467H211.779V93.8433Z" fill="#D07A09"/>
<path d="M232.582 102.467C230.139 102.467 228.271 100.599 228.271 98.1552V93.8433H236.893V98.1552C236.893 100.599 235.025 102.467 232.582 102.467Z" fill="#D07A09"/>
<path d="M35.9805 110.84H31.6693C29.2262 110.84 27.358 108.971 27.358 106.528C27.358 104.084 29.2262 102.216 31.6693 102.216H35.9805V110.84Z" fill="#D07A09"/>
<path d="M44.3519 102.216H35.7294V110.84H44.3519V102.216Z" fill="#D07A09"/>
<path d="M77.8373 110.84H73.5261C71.0831 110.84 69.2148 108.971 69.2148 106.528C69.2148 104.084 71.0831 102.216 73.5261 102.216H77.8373V110.84Z" fill="#D07A09"/>
<path d="M86.2087 102.216H77.5862V110.84H86.2087V102.216Z" fill="#D07A09"/>
<path d="M94.58 102.216H85.9575V110.84H94.58V102.216Z" fill="#D07A09"/>
<path d="M102.951 102.216H94.3289V110.84H102.951V102.216Z" fill="#D07A09"/>
<path d="M111.323 102.216H102.7V110.84H111.323V102.216Z" fill="#D07A09"/>
<path d="M115.383 110.84H111.072V102.216H119.694V106.528C119.694 108.971 117.826 110.84 115.383 110.84Z" fill="#D07A09"/>
<path d="M153.179 102.216H144.557V110.84H153.179V102.216Z" fill="#D07A09"/>
<path d="M157.24 110.84H152.928V102.216H157.24C159.683 102.216 161.551 104.084 161.551 106.528C161.551 108.971 159.683 110.84 157.24 110.84Z" fill="#D07A09"/>
<path d="M173.982 110.84C176.363 110.84 178.294 108.909 178.294 106.528C178.294 104.146 176.363 102.216 173.982 102.216C171.601 102.216 169.671 104.146 169.671 106.528C169.671 108.909 171.601 110.84 173.982 110.84Z" fill="#D07A09"/>
<path d="M195.036 102.216H186.414V110.84H195.036V102.216Z" fill="#D07A09"/>
<path d="M203.408 102.216H194.785V110.84H203.408V102.216Z" fill="#D07A09"/>
<path d="M211.779 102.216H203.156V110.84H211.779V102.216Z" fill="#D07A09"/>
<path d="M220.15 102.216H211.528V110.84H220.15V102.216Z" fill="#D07A09"/>
<path d="M224.21 110.84H219.899V102.216H224.21C226.653 102.216 228.522 104.084 228.522 106.528C228.522 108.971 226.653 110.84 224.21 110.84Z" fill="#D07A09"/>
<path d="M245.264 110.84H236.642V106.528C236.642 104.084 238.51 102.216 240.953 102.216C243.396 102.216 245.264 104.084 245.264 106.528V110.84Z" fill="#D07A09"/>
<path d="M23.2979 119.212C25.679 119.212 27.6092 117.282 27.6092 114.9C27.6092 112.519 25.679 110.588 23.2979 110.588C20.9169 110.588 18.9867 112.519 18.9867 114.9C18.9867 117.282 20.9169 119.212 23.2979 119.212Z" fill="#D07A09"/>
<path d="M44.3519 110.588H35.7294V119.212H44.3519V110.588Z" fill="#D07A09"/>
<path d="M52.7233 110.588H44.1008V119.212H52.7233V110.588Z" fill="#D07A09"/>
<path d="M61.0946 110.588H52.4721V119.212H61.0946V110.588Z" fill="#D07A09"/>
<path d="M65.1548 119.212H60.8435V110.588H65.1548C67.5978 110.588 69.466 112.457 69.466 114.9C69.466 117.344 67.5978 119.212 65.1548 119.212Z" fill="#D07A09"/>
<path d="M81.8974 119.212C79.4544 119.212 77.5862 117.344 77.5862 114.9V110.588H86.2087V114.9C86.2087 117.344 84.3405 119.212 81.8974 119.212Z" fill="#D07A09"/>
<path d="M107.012 119.212C104.568 119.212 102.7 117.344 102.7 114.9V110.588H111.323V114.9C111.323 117.344 109.455 119.212 107.012 119.212Z" fill="#D07A09"/>
<path d="M128.065 119.212H119.443V114.9C119.443 112.457 121.311 110.588 123.754 110.588H128.065V119.212Z" fill="#D07A09"/>
<path d="M132.126 119.212H127.814V110.588H132.126C134.569 110.588 136.437 112.457 136.437 114.9C136.437 117.344 134.569 119.212 132.126 119.212Z" fill="#D07A09"/>
<path d="M148.868 119.212C146.425 119.212 144.557 117.344 144.557 114.9V110.588H153.179V114.9C153.179 117.344 151.311 119.212 148.868 119.212Z" fill="#D07A09"/>
<path d="M186.665 119.212H178.042V114.9C178.042 112.457 179.911 110.588 182.354 110.588H186.665V119.212Z" fill="#D07A09"/>
<path d="M195.036 110.588H186.414V119.212H195.036V110.588Z" fill="#D07A09"/>
<path d="M207.468 119.212C205.025 119.212 203.156 117.344 203.156 114.9V110.588H211.779V114.9C211.779 117.344 209.911 119.212 207.468 119.212Z" fill="#D07A09"/>
<path d="M236.893 119.212H232.582C230.139 119.212 228.271 117.344 228.271 114.9C228.271 112.457 230.139 110.588 232.582 110.588H236.893V119.212Z" fill="#D07A09"/>
<path d="M245.264 110.588H236.642V119.212H245.264V110.588Z" fill="#D07A09"/>
<path d="M253.636 119.212H245.013V110.588H249.324C251.768 110.588 253.636 112.457 253.636 114.9V119.212Z" fill="#D07A09"/>
<path d="M35.9805 127.585H31.6693C29.2262 127.585 27.358 125.716 27.358 123.273C27.358 120.83 29.2262 118.961 31.6693 118.961H35.9805V127.585Z" fill="#D07A09"/>
<path d="M40.0407 127.585H35.7294V118.961H44.3519V123.273C44.3519 125.716 42.4837 127.585 40.0407 127.585Z" fill="#D07A09"/>
<path d="M61.0946 118.961H52.4721V127.585H61.0946V118.961Z" fill="#D07A09"/>
<path d="M73.5261 127.585C75.9071 127.585 77.8373 125.654 77.8373 123.273C77.8373 120.892 75.9071 118.961 73.5261 118.961C71.1451 118.961 69.2148 120.892 69.2148 123.273C69.2148 125.654 71.1451 127.585 73.5261 127.585Z" fill="#D07A09"/>
<path d="M102.951 127.585H94.3289V123.273C94.3289 120.83 96.1971 118.961 98.6401 118.961C101.083 118.961 102.951 120.83 102.951 123.273V127.585Z" fill="#D07A09"/>
<path d="M119.694 127.585H111.072V123.273C111.072 120.83 112.94 118.961 115.383 118.961H119.694V127.585Z" fill="#D07A09"/>
<path d="M128.065 118.961H119.443V127.585H128.065V118.961Z" fill="#D07A09"/>
<path d="M140.497 127.585C142.878 127.585 144.808 125.654 144.808 123.273C144.808 120.892 142.878 118.961 140.497 118.961C138.116 118.961 136.186 120.892 136.186 123.273C136.186 125.654 138.116 127.585 140.497 127.585Z" fill="#D07A09"/>
<path d="M161.551 127.585H157.24C154.797 127.585 152.928 125.716 152.928 123.273C152.928 120.83 154.797 118.961 157.24 118.961H161.551V127.585Z" fill="#D07A09"/>
<path d="M169.922 118.961H161.3V127.585H169.922V118.961Z" fill="#D07A09"/>
<path d="M178.294 118.961H169.671V127.585H178.294V118.961Z" fill="#D07A09"/>
<path d="M186.665 118.961H178.042V127.585H186.665V118.961Z" fill="#D07A09"/>
<path d="M195.036 118.961H186.414V127.585H195.036V118.961Z" fill="#D07A09"/>
<path d="M203.408 127.585H194.785V118.961H199.096C201.539 118.961 203.408 120.83 203.408 123.273V127.585Z" fill="#D07A09"/>
<path d="M220.15 127.585H215.839C213.396 127.585 211.528 125.716 211.528 123.273C211.528 120.83 213.396 118.961 215.839 118.961H220.15V127.585Z" fill="#D07A09"/>
<path d="M224.21 127.585H219.899V118.961H224.21C226.653 118.961 228.522 120.83 228.522 123.273C228.522 125.716 226.653 127.585 224.21 127.585Z" fill="#D07A09"/>
<path d="M245.264 127.585H240.953C238.51 127.585 236.642 125.716 236.642 123.273V118.961H245.264V127.585Z" fill="#D07A09"/>
<path d="M249.324 127.585H245.013V118.961H253.636V123.273C253.636 125.716 251.768 127.585 249.324 127.585Z" fill="#D07A09"/>
<path d="M19.2378 135.958H14.9266C12.4836 135.958 10.6154 134.089 10.6154 131.646C10.6154 129.202 12.4836 127.334 14.9266 127.334H19.2378V135.958Z" fill="#D07A09"/>
<path d="M27.6092 135.958H18.9867V127.334H23.2979C25.741 127.334 27.6092 129.202 27.6092 131.646V135.958Z" fill="#D07A09"/>
<path d="M61.0946 135.958H56.7834C54.3403 135.958 52.4721 134.089 52.4721 131.646V127.334H61.0946V135.958Z" fill="#D07A09"/>
<path d="M65.1548 135.958H60.8435V127.334H65.1548C67.5978 127.334 69.466 129.202 69.466 131.646C69.466 134.089 67.5978 135.958 65.1548 135.958Z" fill="#D07A09"/>
<path d="M86.2087 135.958H77.5862V131.646C77.5862 129.202 79.4544 127.334 81.8974 127.334H86.2087V135.958Z" fill="#D07A09"/>
<path d="M94.58 127.334H85.9575V135.958H94.58V127.334Z" fill="#D07A09"/>
<path d="M102.951 127.334H94.3289V135.958H102.951V127.334Z" fill="#D07A09"/>
<path d="M119.694 127.334H111.072V135.958H119.694V127.334Z" fill="#D07A09"/>
<path d="M128.065 127.334H119.443V135.958H128.065V127.334Z" fill="#D07A09"/>
<path d="M165.611 135.958C163.168 135.958 161.3 134.089 161.3 131.646V127.334H169.922V131.646C169.922 134.089 168.054 135.958 165.611 135.958Z" fill="#D07A09"/>
<path d="M182.354 135.958C179.911 135.958 178.042 134.089 178.042 131.646V127.334H186.665V131.646C186.665 134.089 184.797 135.958 182.354 135.958Z" fill="#D07A09"/>
<path d="M203.408 127.334H194.785V135.958H203.408V127.334Z" fill="#D07A09"/>
<path d="M207.468 135.958H203.156V127.334H207.468C209.911 127.334 211.779 129.202 211.779 131.646C211.779 134.089 209.911 135.958 207.468 135.958Z" fill="#D07A09"/>
<path d="M27.6092 135.706H18.9867V144.33H27.6092V135.706Z" fill="#D07A09"/>
<path d="M35.9805 144.33H27.358V135.706H31.6693C34.1123 135.706 35.9805 137.575 35.9805 140.018V144.33Z" fill="#D07A09"/>
<path d="M77.8373 144.33H69.2148V140.018C69.2148 137.575 71.0831 135.706 73.5261 135.706H77.8373V144.33Z" fill="#D07A09"/>
<path d="M86.2087 135.706H77.5862V144.33H86.2087V135.706Z" fill="#D07A09"/>
<path d="M94.58 135.706H85.9575V144.33H94.58V135.706Z" fill="#D07A09"/>
<path d="M102.951 135.706H94.3289V144.33H102.951V135.706Z" fill="#D07A09"/>
<path d="M119.694 144.33H115.383C112.94 144.33 111.072 142.462 111.072 140.018V135.706H119.694V144.33Z" fill="#D07A09"/>
<path d="M123.754 144.33H119.443V135.706H128.065V140.018C128.065 142.462 126.197 144.33 123.754 144.33Z" fill="#D07A09"/>
<path d="M140.497 144.33C142.878 144.33 144.808 142.4 144.808 140.018C144.808 137.637 142.878 135.706 140.497 135.706C138.116 135.706 136.186 137.637 136.186 140.018C136.186 142.4 138.116 144.33 140.497 144.33Z" fill="#D07A09"/>
<path d="M199.096 144.33C196.653 144.33 194.785 142.462 194.785 140.018V135.706H203.408V140.018C203.408 142.462 201.539 144.33 199.096 144.33Z" fill="#D07A09"/>
<path d="M220.15 144.33H215.839C213.396 144.33 211.528 142.462 211.528 140.018C211.528 137.575 213.396 135.706 215.839 135.706H220.15V144.33Z" fill="#D07A09"/>
<path d="M228.522 144.33H219.899V135.706H224.21C226.653 135.706 228.522 137.575 228.522 140.018V144.33Z" fill="#D07A09"/>
<path d="M19.2378 152.703H10.6154V148.391C10.6154 145.947 12.4836 144.079 14.9266 144.079H19.2378V152.703Z" fill="#D07A09"/>
<path d="M27.6092 144.079H18.9867V152.703H27.6092V144.079Z" fill="#D07A09"/>
<path d="M31.6693 152.703H27.358V144.079H35.9805V148.391C35.9805 150.834 34.1123 152.703 31.6693 152.703Z" fill="#D07A09"/>
<path d="M52.7233 152.703H44.1008V148.391C44.1008 145.947 45.969 144.079 48.412 144.079H52.7233V152.703Z" fill="#D07A09"/>
<path d="M61.0946 144.079H52.4721V152.703H61.0946V144.079Z" fill="#D07A09"/>
<path d="M69.466 144.079H60.8435V152.703H69.466V144.079Z" fill="#D07A09"/>
<path d="M77.8373 144.079H69.2148V152.703H77.8373V144.079Z" fill="#D07A09"/>
<path d="M86.2087 144.079H77.5862V152.703H86.2087V144.079Z" fill="#D07A09"/>
<path d="M94.58 144.079H85.9575V152.703H94.58V144.079Z" fill="#D07A09"/>
<path d="M102.951 144.079H94.3289V152.703H102.951V144.079Z" fill="#D07A09"/>
<path d="M107.012 152.703H102.7V144.079H107.012C109.455 144.079 111.323 145.947 111.323 148.391C111.323 150.834 109.455 152.703 107.012 152.703Z" fill="#D07A09"/>
<path d="M136.437 152.703H127.814V148.391C127.814 145.947 129.683 144.079 132.126 144.079C134.569 144.079 136.437 145.947 136.437 148.391V152.703Z" fill="#D07A09"/>
<path d="M153.179 152.703H144.557V148.391C144.557 145.947 146.425 144.079 148.868 144.079H153.179V152.703Z" fill="#D07A09"/>
<path d="M157.24 152.703H152.928V144.079H157.24C159.683 144.079 161.551 145.947 161.551 148.391C161.551 150.834 159.683 152.703 157.24 152.703Z" fill="#D07A09"/>
<path d="M186.665 152.703H178.042V148.391C178.042 145.947 179.911 144.079 182.354 144.079C184.797 144.079 186.665 145.947 186.665 148.391V152.703Z" fill="#D07A09"/>
<path d="M207.468 152.703C209.849 152.703 211.779 150.772 211.779 148.391C211.779 146.009 209.849 144.079 207.468 144.079C205.087 144.079 203.156 146.009 203.156 148.391C203.156 150.772 205.087 152.703 207.468 152.703Z" fill="#D07A09"/>
<path d="M228.522 152.703H224.21C221.767 152.703 219.899 150.834 219.899 148.391V144.079H228.522V152.703Z" fill="#D07A09"/>
<path d="M236.893 144.079H228.271V152.703H236.893V144.079Z" fill="#D07A09"/>
<path d="M245.264 144.079H236.642V152.703H245.264V144.079Z" fill="#D07A09"/>
<path d="M253.636 152.703H245.013V144.079H249.324C251.768 144.079 253.636 145.947 253.636 148.391V152.703Z" fill="#D07A09"/>
<path d="M19.2378 152.452H10.6154V161.075H19.2378V152.452Z" fill="#D07A09"/>
<path d="M23.2979 161.075H18.9867V152.452H27.6092V156.764C27.6092 159.207 25.741 161.075 23.2979 161.075Z" fill="#D07A09"/>
<path d="M52.7233 152.452H44.1008V161.075H52.7233V152.452Z" fill="#D07A09"/>
<path d="M61.0946 152.452H52.4721V161.075H61.0946V152.452Z" fill="#D07A09"/>
<path d="M73.5261 161.075C71.0831 161.075 69.2148 159.207 69.2148 156.764V152.452H77.8373V156.764C77.8373 159.207 75.9691 161.075 73.5261 161.075Z" fill="#D07A09"/>
<path d="M98.6401 161.075C96.1971 161.075 94.3289 159.207 94.3289 156.764V152.452H102.951V156.764C102.951 159.207 101.083 161.075 98.6401 161.075Z" fill="#D07A09"/>
<path d="M132.126 161.075C129.683 161.075 127.814 159.207 127.814 156.764V152.452H136.437V156.764C136.437 159.207 134.569 161.075 132.126 161.075Z" fill="#D07A09"/>
<path d="M153.179 152.452H144.557V161.075H153.179V152.452Z" fill="#D07A09"/>
<path d="M186.665 152.452H178.042V161.075H186.665V152.452Z" fill="#D07A09"/>
<path d="M220.15 161.075H211.528V156.764C211.528 154.32 213.396 152.452 215.839 152.452C218.282 152.452 220.15 154.32 220.15 156.764V161.075Z" fill="#D07A09"/>
<path d="M236.893 152.452H228.271V161.075H236.893V152.452Z" fill="#D07A09"/>
<path d="M245.264 152.452H236.642V161.075H245.264V152.452Z" fill="#D07A09"/>
<path d="M249.324 161.075H245.013V152.452H253.636V156.764C253.636 159.207 251.768 161.075 249.324 161.075Z" fill="#D07A09"/>
<path d="M19.2378 160.824H10.6154V169.448H19.2378V160.824Z" fill="#D07A09"/>
<path d="M35.9805 169.448H27.358V165.136C27.358 162.693 29.2262 160.824 31.6693 160.824C34.1123 160.824 35.9805 162.693 35.9805 165.136V169.448Z" fill="#D07A09"/>
<path d="M52.7233 160.824H44.1008V169.448H52.7233V160.824Z" fill="#D07A09"/>
<path d="M61.0946 160.824H52.4721V169.448H61.0946V160.824Z" fill="#D07A09"/>
<path d="M65.1548 169.448H60.8435V160.824H65.1548C67.5978 160.824 69.466 162.693 69.466 165.136C69.466 167.58 67.5978 169.448 65.1548 169.448Z" fill="#D07A09"/>
<path d="M86.2087 169.448H77.5862V165.136C77.5862 162.693 79.4544 160.824 81.8974 160.824H86.2087V169.448Z" fill="#D07A09"/>
<path d="M90.2688 169.448H85.9575V160.824H90.2688C92.7118 160.824 94.58 162.693 94.58 165.136C94.58 167.58 92.7118 169.448 90.2688 169.448Z" fill="#D07A09"/>
<path d="M128.065 169.448H119.443V165.136C119.443 162.693 121.311 160.824 123.754 160.824C126.197 160.824 128.065 162.693 128.065 165.136V169.448Z" fill="#D07A09"/>
<path d="M153.179 160.824H144.557V169.448H153.179V160.824Z" fill="#D07A09"/>
<path d="M165.611 169.448C167.992 169.448 169.922 167.518 169.922 165.136C169.922 162.755 167.992 160.824 165.611 160.824C163.23 160.824 161.3 162.755 161.3 165.136C161.3 167.518 163.23 169.448 165.611 169.448Z" fill="#D07A09"/>
<path d="M182.354 169.448C179.911 169.448 178.042 167.58 178.042 165.136V160.824H186.665V165.136C186.665 167.58 184.797 169.448 182.354 169.448Z" fill="#D07A09"/>
<path d="M203.408 169.448H194.785V165.136C194.785 162.693 196.653 160.824 199.096 160.824H203.408V169.448Z" fill="#D07A09"/>
<path d="M211.779 160.824H203.156V169.448H211.779V160.824Z" fill="#D07A09"/>
<path d="M220.15 160.824H211.528V169.448H220.15V160.824Z" fill="#D07A09"/>
<path d="M228.522 160.824H219.899V169.448H228.522V160.824Z" fill="#D07A09"/>
<path d="M232.582 169.448H228.271V160.824H236.893V165.136C236.893 167.58 235.025 169.448 232.582 169.448Z" fill="#D07A09"/>
<path d="M19.2378 169.197H10.6154V177.821H19.2378V169.197Z" fill="#D07A09"/>
<path d="M35.9805 169.197H27.358V177.821H35.9805V169.197Z" fill="#D07A09"/>
<path d="M44.3519 169.197H35.7294V177.821H44.3519V169.197Z" fill="#D07A09"/>
<path d="M48.412 177.821H44.1008V169.197H52.7233V173.509C52.7233 175.952 50.8551 177.821 48.412 177.821Z" fill="#D07A09"/>
<path d="M86.2087 169.197H77.5862V177.821H86.2087V169.197Z" fill="#D07A09"/>
<path d="M98.6401 177.821C101.021 177.821 102.951 175.89 102.951 173.509C102.951 171.127 101.021 169.197 98.6401 169.197C96.2591 169.197 94.3289 171.127 94.3289 173.509C94.3289 175.89 96.2591 177.821 98.6401 177.821Z" fill="#D07A09"/>
<path d="M119.694 177.821H111.072V173.509C111.072 171.065 112.94 169.197 115.383 169.197H119.694V177.821Z" fill="#D07A09"/>
<path d="M128.065 169.197H119.443V177.821H128.065V169.197Z" fill="#D07A09"/>
<path d="M136.437 177.821H127.814V169.197H132.126C134.569 169.197 136.437 171.065 136.437 173.509V177.821Z" fill="#D07A09"/>
<path d="M153.179 169.197H144.557V177.821H153.179V169.197Z" fill="#D07A09"/>
<path d="M203.408 169.197H194.785V177.821H203.408V169.197Z" fill="#D07A09"/>
<path d="M211.779 169.197H203.156V177.821H211.779V169.197Z" fill="#D07A09"/>
<path d="M220.15 169.197H211.528V177.821H220.15V169.197Z" fill="#D07A09"/>
<path d="M245.264 177.821H240.953C238.51 177.821 236.642 175.952 236.642 173.509C236.642 171.065 238.51 169.197 240.953 169.197H245.264V177.821Z" fill="#D07A09"/>
<path d="M249.324 177.821H245.013V169.197H249.324C251.768 169.197 253.636 171.065 253.636 173.509C253.636 175.952 251.768 177.821 249.324 177.821Z" fill="#D07A09"/>
<path d="M14.9266 186.193C12.4836 186.193 10.6154 184.325 10.6154 181.881V177.57H19.2378V181.881C19.2378 184.325 17.3696 186.193 14.9266 186.193Z" fill="#D07A09"/>
<path d="M35.9805 186.193H31.6693C29.2262 186.193 27.358 184.325 27.358 181.881V177.57H35.9805V186.193Z" fill="#D07A09"/>
<path d="M40.0407 186.193H35.7294V177.57H44.3519V181.881C44.3519 184.325 42.4837 186.193 40.0407 186.193Z" fill="#D07A09"/>
<path d="M61.0946 186.193H56.7834C54.3403 186.193 52.4721 184.325 52.4721 181.881C52.4721 179.438 54.3403 177.57 56.7834 177.57H61.0946V186.193Z" fill="#D07A09"/>
<path d="M65.1548 186.193H60.8435V177.57H65.1548C67.5978 177.57 69.466 179.438 69.466 181.881C69.466 184.325 67.5978 186.193 65.1548 186.193Z" fill="#D07A09"/>
<path d="M86.2087 177.57H77.5862V186.193H86.2087V177.57Z" fill="#D07A09"/>
<path d="M111.323 186.193H102.7V181.881C102.7 179.438 104.568 177.57 107.012 177.57H111.323V186.193Z" fill="#D07A09"/>
<path d="M119.694 177.57H111.072V186.193H119.694V177.57Z" fill="#D07A09"/>
<path d="M136.437 177.57H127.814V186.193H136.437V177.57Z" fill="#D07A09"/>
<path d="M144.808 177.57H136.186V186.193H144.808V177.57Z" fill="#D07A09"/>
<path d="M148.868 186.193H144.557V177.57H153.179V181.881C153.179 184.325 151.311 186.193 148.868 186.193Z" fill="#D07A09"/>
<path d="M186.665 186.193H178.042V181.881C178.042 179.438 179.911 177.57 182.354 177.57H186.665V186.193Z" fill="#D07A09"/>
<path d="M195.036 177.57H186.414V186.193H195.036V177.57Z" fill="#D07A09"/>
<path d="M203.408 177.57H194.785V186.193H203.408V177.57Z" fill="#D07A09"/>
<path d="M211.779 177.57H203.156V186.193H211.779V177.57Z" fill="#D07A09"/>
<path d="M220.15 177.57H211.528V186.193H220.15V177.57Z" fill="#D07A09"/>
<path d="M232.582 186.193C234.963 186.193 236.893 184.263 236.893 181.881C236.893 179.5 234.963 177.57 232.582 177.57C230.201 177.57 228.271 179.5 228.271 181.881C228.271 184.263 230.201 186.193 232.582 186.193Z" fill="#D07A09"/>
<path d="M86.2087 194.566H81.8974C79.4544 194.566 77.5862 192.697 77.5862 190.254V185.942H86.2087V194.566Z" fill="#D07A09"/>
<path d="M94.58 185.942H85.9575V194.566H94.58V185.942Z" fill="#D07A09"/>
<path d="M102.951 185.942H94.3289V194.566H102.951V185.942Z" fill="#D07A09"/>
<path d="M111.323 185.942H102.7V194.566H111.323V185.942Z" fill="#D07A09"/>
<path d="M119.694 185.942H111.072V194.566H119.694V185.942Z" fill="#D07A09"/>
<path d="M128.065 185.942H119.443V194.566H128.065V185.942Z" fill="#D07A09"/>
<path d="M136.437 185.942H127.814V194.566H136.437V185.942Z" fill="#D07A09"/>
<path d="M144.808 185.942H136.186V194.566H144.808V185.942Z" fill="#D07A09"/>
<path d="M169.922 194.566H165.611C163.168 194.566 161.3 192.697 161.3 190.254C161.3 187.811 163.168 185.942 165.611 185.942H169.922V194.566Z" fill="#D07A09"/>
<path d="M178.294 185.942H169.671V194.566H178.294V185.942Z" fill="#D07A09"/>
<path d="M186.665 185.942H178.042V194.566H186.665V185.942Z" fill="#D07A09"/>
<path d="M220.15 185.942H211.528V194.566H220.15V185.942Z" fill="#D07A09"/>
<path d="M224.21 194.566H219.899V185.942H224.21C226.653 185.942 228.522 187.811 228.522 190.254C228.522 192.697 226.653 194.566 224.21 194.566Z" fill="#D07A09"/>
<path d="M245.264 194.566H240.953C238.51 194.566 236.642 192.697 236.642 190.254C236.642 187.811 238.51 185.942 240.953 185.942H245.264V194.566Z" fill="#D07A09"/>
<path d="M249.324 194.566H245.013V185.942H249.324C251.768 185.942 253.636 187.811 253.636 190.254C253.636 192.697 251.768 194.566 249.324 194.566Z" fill="#D07A09"/>
<path d="M102.951 194.315H94.3289V202.939H102.951V194.315Z" fill="#D07A09"/>
<path d="M107.012 202.939H102.7V194.315H111.323V198.627C111.323 201.07 109.455 202.939 107.012 202.939Z" fill="#D07A09"/>
<path d="M136.437 202.939H132.126C129.683 202.939 127.814 201.07 127.814 198.627V194.315H136.437V202.939Z" fill="#D07A09"/>
<path d="M144.808 194.315H136.186V202.939H144.808V194.315Z" fill="#D07A09"/>
<path d="M157.24 202.939C159.621 202.939 161.551 201.008 161.551 198.627C161.551 196.245 159.621 194.315 157.24 194.315C154.859 194.315 152.928 196.245 152.928 198.627C152.928 201.008 154.859 202.939 157.24 202.939Z" fill="#D07A09"/>
<path d="M178.294 194.315H169.671V202.939H178.294V194.315Z" fill="#D07A09"/>
<path d="M186.665 194.315H178.042V202.939H186.665V194.315Z" fill="#D07A09"/>
<path d="M199.096 202.939C201.477 202.939 203.408 201.008 203.408 198.627C203.408 196.245 201.477 194.315 199.096 194.315C196.715 194.315 194.785 196.245 194.785 198.627C194.785 201.008 196.715 202.939 199.096 202.939Z" fill="#D07A09"/>
<path d="M220.15 194.315H211.528V202.939H220.15V194.315Z" fill="#D07A09"/>
<path d="M98.6401 211.311C96.1971 211.311 94.3289 209.443 94.3289 206.999V202.687H102.951V206.999C102.951 209.443 101.083 211.311 98.6401 211.311Z" fill="#D07A09"/>
<path d="M123.754 211.311C126.135 211.311 128.065 209.381 128.065 206.999C128.065 204.618 126.135 202.687 123.754 202.687C121.373 202.687 119.443 204.618 119.443 206.999C119.443 209.381 121.373 211.311 123.754 211.311Z" fill="#D07A09"/>
<path d="M144.808 202.687H136.186V211.311H144.808V202.687Z" fill="#D07A09"/>
<path d="M178.294 211.311H173.982C171.539 211.311 169.671 209.443 169.671 206.999V202.687H178.294V211.311Z" fill="#D07A09"/>
<path d="M186.665 202.687H178.042V211.311H186.665V202.687Z" fill="#D07A09"/>
<path d="M220.15 202.687H211.528V211.311H220.15V202.687Z" fill="#D07A09"/>
<path d="M228.522 211.311H219.899V202.687H224.21C226.653 202.687 228.522 204.556 228.522 206.999V211.311Z" fill="#D07A09"/>
<path d="M240.953 211.311C243.334 211.311 245.264 209.381 245.264 206.999C245.264 204.618 243.334 202.687 240.953 202.687C238.572 202.687 236.642 204.618 236.642 206.999C236.642 209.381 238.572 211.311 240.953 211.311Z" fill="#D07A09"/>
<path d="M86.2087 219.684H77.5862V215.372C77.5862 212.929 79.4544 211.06 81.8974 211.06C84.3405 211.06 86.2087 212.929 86.2087 215.372V219.684Z" fill="#D07A09"/>
<path d="M119.694 219.684H111.072V215.372C111.072 212.929 112.94 211.06 115.383 211.06C117.826 211.06 119.694 212.929 119.694 215.372V219.684Z" fill="#D07A09"/>
<path d="M136.437 219.684H132.126C129.683 219.684 127.814 217.815 127.814 215.372C127.814 212.929 129.683 211.06 132.126 211.06H136.437V219.684Z" fill="#D07A09"/>
<path d="M144.808 211.06H136.186V219.684H144.808V211.06Z" fill="#D07A09"/>
<path d="M153.179 219.684H144.557V211.06H148.868C151.311 211.06 153.179 212.929 153.179 215.372V219.684Z" fill="#D07A09"/>
<path d="M169.922 219.684H161.3V215.372C161.3 212.929 163.168 211.06 165.611 211.06C168.054 211.06 169.922 212.929 169.922 215.372V219.684Z" fill="#D07A09"/>
<path d="M186.665 211.06H178.042V219.684H186.665V211.06Z" fill="#D07A09"/>
<path d="M195.036 211.06H186.414V219.684H195.036V211.06Z" fill="#D07A09"/>
<path d="M203.408 211.06H194.785V219.684H203.408V211.06Z" fill="#D07A09"/>
<path d="M211.779 211.06H203.156V219.684H211.779V211.06Z" fill="#D07A09"/>
<path d="M220.15 211.06H211.528V219.684H220.15V211.06Z" fill="#D07A09"/>
<path d="M228.522 211.06H219.899V219.684H228.522V211.06Z" fill="#D07A09"/>
<path d="M236.893 219.684H228.271V211.06H232.582C235.025 211.06 236.893 212.929 236.893 215.372V219.684Z" fill="#D07A09"/>
<path d="M249.324 219.684C251.706 219.684 253.636 217.753 253.636 215.372C253.636 212.991 251.706 211.06 249.324 211.06C246.943 211.06 245.013 212.991 245.013 215.372C245.013 217.753 246.943 219.684 249.324 219.684Z" fill="#D07A09"/>
<path d="M86.2087 219.433H77.5862V228.056H86.2087V219.433Z" fill="#D07A09"/>
<path d="M94.58 228.056H85.9575V219.433H90.2688C92.7118 219.433 94.58 221.301 94.58 223.745V228.056Z" fill="#D07A09"/>
<path d="M115.383 228.056C112.94 228.056 111.072 226.188 111.072 223.745V219.433H119.694V223.745C119.694 226.188 117.826 228.056 115.383 228.056Z" fill="#D07A09"/>
<path d="M153.179 219.433H144.557V228.056H153.179V219.433Z" fill="#D07A09"/>
<path d="M169.922 219.433H161.3V228.056H169.922V219.433Z" fill="#D07A09"/>
<path d="M178.294 219.433H169.671V228.056H178.294V219.433Z" fill="#D07A09"/>
<path d="M186.665 219.433H178.042V228.056H186.665V219.433Z" fill="#D07A09"/>
<path d="M195.036 219.433H186.414V228.056H195.036V219.433Z" fill="#D07A09"/>
<path d="M211.779 219.433H203.156V228.056H211.779V219.433Z" fill="#D07A09"/>
<path d="M228.522 219.433H219.899V228.056H228.522V219.433Z" fill="#D07A09"/>
<path d="M236.893 219.433H228.271V228.056H236.893V219.433Z" fill="#D07A09"/>
<path d="M86.2087 236.429H81.8974C79.4544 236.429 77.5862 234.56 77.5862 232.117V227.805H86.2087V236.429Z" fill="#D07A09"/>
<path d="M90.2688 236.429H85.9575V227.805H94.58V232.117C94.58 234.56 92.7118 236.429 90.2688 236.429Z" fill="#D07A09"/>
<path d="M136.437 236.429H127.814V232.117C127.814 229.674 129.683 227.805 132.126 227.805C134.569 227.805 136.437 229.674 136.437 232.117V236.429Z" fill="#D07A09"/>
<path d="M153.179 227.805H144.557V236.429H153.179V227.805Z" fill="#D07A09"/>
<path d="M169.922 236.429H165.611C163.168 236.429 161.3 234.56 161.3 232.117V227.805H169.922V236.429Z" fill="#D07A09"/>
<path d="M178.294 227.805H169.671V236.429H178.294V227.805Z" fill="#D07A09"/>
<path d="M186.665 227.805H178.042V236.429H186.665V227.805Z" fill="#D07A09"/>
<path d="M195.036 227.805H186.414V236.429H195.036V227.805Z" fill="#D07A09"/>
<path d="M203.408 227.805H194.785V236.429H203.408V227.805Z" fill="#D07A09"/>
<path d="M211.779 227.805H203.156V236.429H211.779V227.805Z" fill="#D07A09"/>
<path d="M220.15 227.805H211.528V236.429H220.15V227.805Z" fill="#D07A09"/>
<path d="M228.522 227.805H219.899V236.429H228.522V227.805Z" fill="#D07A09"/>
<path d="M236.893 227.805H228.271V236.429H236.893V227.805Z" fill="#D07A09"/>
<path d="M245.264 236.429H236.642V227.805H240.953C243.396 227.805 245.264 229.674 245.264 232.117V236.429Z" fill="#D07A09"/>
<path d="M102.951 244.802H94.3289V240.49C94.3289 238.046 96.1971 236.178 98.6401 236.178C101.083 236.178 102.951 238.046 102.951 240.49V244.802Z" fill="#D07A09"/>
<path d="M119.694 244.802H115.383C112.94 244.802 111.072 242.933 111.072 240.49C111.072 238.046 112.94 236.178 115.383 236.178H119.694V244.802Z" fill="#D07A09"/>
<path d="M128.065 236.178H119.443V244.802H128.065V236.178Z" fill="#D07A09"/>
<path d="M132.126 244.802H127.814V236.178H136.437V240.49C136.437 242.933 134.569 244.802 132.126 244.802Z" fill="#D07A09"/>
<path d="M153.179 236.178H144.557V244.802H153.179V236.178Z" fill="#D07A09"/>
<path d="M178.294 236.178H169.671V244.802H178.294V236.178Z" fill="#D07A09"/>
<path d="M182.354 244.802H178.042V236.178H186.665V240.49C186.665 242.933 184.797 244.802 182.354 244.802Z" fill="#D07A09"/>
<path d="M220.15 236.178H211.528V244.802H220.15V236.178Z" fill="#D07A09"/>
<path d="M224.21 244.802H219.899V236.178H228.522V240.49C228.522 242.933 226.653 244.802 224.21 244.802Z" fill="#D07A09"/>
<path d="M240.953 244.802C238.51 244.802 236.642 242.933 236.642 240.49V236.178H245.264V240.49C245.264 242.933 243.396 244.802 240.953 244.802Z" fill="#D07A09"/>
<path d="M102.951 253.174H98.6401C96.1971 253.174 94.3289 251.306 94.3289 248.862V244.551H102.951V253.174Z" fill="#D07A09"/>
<path d="M107.012 253.174H102.7V244.551H107.012C109.455 244.551 111.323 246.419 111.323 248.862C111.323 251.306 109.455 253.174 107.012 253.174Z" fill="#D07A09"/>
<path d="M153.179 253.174H148.868C146.425 253.174 144.557 251.306 144.557 248.862V244.551H153.179V253.174Z" fill="#D07A09"/>
<path d="M157.24 253.174H152.928V244.551H157.24C159.683 244.551 161.551 246.419 161.551 248.862C161.551 251.306 159.683 253.174 157.24 253.174Z" fill="#D07A09"/>
<path d="M173.982 253.174C171.539 253.174 169.671 251.306 169.671 248.862V244.551H178.294V248.862C178.294 251.306 176.425 253.174 173.982 253.174Z" fill="#D07A09"/>
<path d="M199.096 253.174C201.477 253.174 203.408 251.244 203.408 248.862C203.408 246.481 201.477 244.551 199.096 244.551C196.715 244.551 194.785 246.481 194.785 248.862C194.785 251.244 196.715 253.174 199.096 253.174Z" fill="#D07A09"/>
<path d="M215.839 253.174C213.396 253.174 211.528 251.306 211.528 248.862V244.551H220.15V248.862C220.15 251.306 218.282 253.174 215.839 253.174Z" fill="#D07A09"/>
<path d="M29.4509 68.7253H50.7978C60.8435 68.7253 69.2148 60.3527 69.2148 50.3055V28.9554C69.2148 18.4896 60.8435 10.1169 50.3793 10.1169H29.0323C18.9867 10.1169 10.6154 18.4896 10.6154 28.5367V49.8869C10.6154 60.3527 18.9867 68.7253 29.4509 68.7253ZM60.8435 30.2112V48.631C60.8435 54.9105 55.4021 60.3527 49.1236 60.3527H30.7066C24.0095 60.3527 18.9867 55.3291 18.9867 48.631V30.2112C18.9867 23.9318 24.4281 18.4896 30.7066 18.4896H49.1236C55.8207 18.4896 60.8435 23.5131 60.8435 30.2112Z" fill="#D07A09"/>
<path d="M213.621 68.7253H234.968C245.013 68.7253 253.385 60.3527 253.385 50.3055V28.9554C253.385 18.4896 245.013 10.1169 234.549 10.1169H213.202C203.156 10.1169 194.785 18.4896 194.785 28.5367V49.8869C194.785 60.3527 203.156 68.7253 213.621 68.7253ZM245.013 30.2112V48.631C245.013 54.9105 239.572 60.3527 233.293 60.3527H214.876C208.179 60.3527 203.156 55.3291 203.156 48.631V30.2112C203.156 23.9318 208.598 18.4896 214.876 18.4896H233.293C239.99 18.4896 245.013 23.5131 245.013 30.2112Z" fill="#D07A09"/>
<path d="M29.4509 252.923H50.7978C60.8435 252.923 69.2148 244.55 69.2148 234.503V213.153C69.2148 202.687 60.8435 194.315 50.3793 194.315H29.0323C18.9867 194.315 10.6154 202.687 10.6154 212.734V234.085C10.6154 244.55 18.9867 252.923 29.4509 252.923ZM60.8435 214.409V232.829C60.8435 239.108 55.4021 244.55 49.1236 244.55H30.7066C24.0095 244.55 18.9867 239.527 18.9867 232.829V214.409C18.9867 208.13 24.4281 202.687 30.7066 202.687H49.1236C55.8207 202.687 60.8435 207.711 60.8435 214.409Z" fill="#D07A09"/>
<path d="M52.4721 33.979V45.2821C52.4721 48.6311 49.1236 51.9802 45.3564 51.9802H34.4737C30.288 51.9802 27.358 49.0498 27.358 44.8635V33.979C27.358 30.2114 30.7066 26.8623 34.4737 26.8623H45.775C49.5421 26.8623 52.4721 29.7927 52.4721 33.979Z" fill="#D07A09"/>
<path d="M236.642 33.979V45.2821C236.642 48.6311 233.293 51.9802 229.526 51.9802H218.643C214.458 51.9802 211.528 49.0498 211.528 44.8635V33.979C211.528 30.2114 214.876 26.8623 218.643 26.8623H229.945C233.712 26.8623 236.642 29.7927 236.642 33.979Z" fill="#D07A09"/>
<path d="M52.4721 218.177V229.48C52.4721 232.829 49.1236 236.178 45.3564 236.178H34.4737C30.288 236.178 27.358 233.248 27.358 229.061V218.177C27.358 214.409 30.7066 211.06 34.4737 211.06H45.775C49.5421 211.06 52.4721 213.99 52.4721 218.177Z" fill="#D07A09"/>
</svg>
