<svg width="42" height="43" viewBox="0 0 42 43" fill="none" xmlns="http://www.w3.org/2000/svg">
<path d="M36.75 25.4376V34.6251C36.75 35.3212 36.4734 35.9889 35.9812 36.4812C35.4889 36.9735 34.8212 37.2501 34.125 37.2501H7.875C7.17881 37.2501 6.51113 36.9735 6.01884 36.4812C5.52656 35.9889 5.25 35.3212 5.25 34.6251V25.4376C5.25 25.0895 5.38828 24.7556 5.63442 24.5095C5.88056 24.2633 6.2144 24.1251 6.5625 24.1251C6.9106 24.1251 7.24444 24.2633 7.49058 24.5095C7.73672 24.7556 7.875 25.0895 7.875 25.4376V34.6251H34.125V25.4376C34.125 25.0895 34.2633 24.7556 34.5094 24.5095C34.7556 24.2633 35.0894 24.1251 35.4375 24.1251C35.7856 24.1251 36.1194 24.2633 36.3656 24.5095C36.6117 24.7556 36.75 25.0895 36.75 25.4376ZM15.3661 14.5537L19.6875 10.2306V25.4376C19.6875 25.7857 19.8258 26.1195 20.0719 26.3656C20.3181 26.6118 20.6519 26.7501 21 26.7501C21.3481 26.7501 21.6819 26.6118 21.9281 26.3656C22.1742 26.1195 22.3125 25.7857 22.3125 25.4376V10.2306L26.6339 14.5537C26.8802 14.7999 27.2142 14.9383 27.5625 14.9383C27.9108 14.9383 28.2448 14.7999 28.4911 14.5537C28.7374 14.3074 28.8757 13.9733 28.8757 13.6251C28.8757 13.2768 28.7374 12.9427 28.4911 12.6965L21.9286 6.13396C21.8067 6.01193 21.6619 5.91512 21.5026 5.84907C21.3433 5.78302 21.1725 5.74902 21 5.74902C20.8275 5.74902 20.6567 5.78302 20.4974 5.84907C20.3381 5.91512 20.1933 6.01193 20.0714 6.13396L13.5089 12.6965C13.2626 12.9427 13.1243 13.2768 13.1243 13.6251C13.1243 13.9733 13.2626 14.3074 13.5089 14.5537C13.7552 14.7999 14.0892 14.9383 14.4375 14.9383C14.7858 14.9383 15.1198 14.7999 15.3661 14.5537Z" fill="#FFAE48"/>
</svg>
