<svg width="24" height="24" viewBox="0 0 24 24" fill="none" xmlns="http://www.w3.org/2000/svg">
<path d="M21.5947 19.9064L21.5946 19.9064L21.5955 19.9078C21.6435 19.986 21.6753 20.0731 21.6891 20.1639C21.7029 20.2547 21.6984 20.3473 21.6758 20.4363C21.6532 20.5252 21.6131 20.6088 21.5577 20.682C21.5023 20.7552 21.4328 20.8166 21.3533 20.8625C21.2738 20.9085 21.1859 20.938 21.0948 20.9494C21.0037 20.9608 20.9112 20.9538 20.8229 20.9289C20.7345 20.904 20.652 20.8617 20.5803 20.8044C20.5086 20.7471 20.4491 20.676 20.4052 20.5953L20.4053 20.5953L20.4044 20.5938C18.6273 17.5224 15.485 15.6876 12 15.6876C8.51501 15.6876 5.37277 17.5224 3.5956 20.5938L3.59558 20.5938L3.59477 20.5953C3.55096 20.676 3.49144 20.7471 3.41971 20.8044C3.34798 20.8617 3.2655 20.904 3.17713 20.9289C3.08877 20.9538 2.99631 20.9608 2.90522 20.9494C2.81412 20.938 2.72623 20.9085 2.64673 20.8625C2.56723 20.8166 2.49774 20.7552 2.44234 20.682C2.38695 20.6088 2.34678 20.5252 2.32421 20.4363C2.30163 20.3473 2.29711 20.2547 2.31091 20.1639C2.3247 20.0731 2.35654 19.986 2.40454 19.9078L2.40456 19.9078L2.40537 19.9064C3.82561 17.4501 6.01368 15.6903 8.56659 14.857L8.69744 14.8143L8.57917 14.7439C7.32077 13.9948 6.34308 12.8533 5.79623 11.4947C5.24938 10.1361 5.16361 8.63562 5.55209 7.22359C5.94057 5.81155 6.78183 4.56608 7.94667 3.67844C9.1115 2.79079 10.5355 2.31006 12 2.31006C13.4645 2.31006 14.8885 2.79079 16.0534 3.67844C17.2182 4.56608 18.0594 5.81155 18.4479 7.22359C18.8364 8.63562 18.7506 10.1361 18.2038 11.4947C17.6569 12.8533 16.6792 13.9948 15.4209 14.7439L15.3026 14.8143L15.4334 14.857C17.9863 15.6912 20.1744 17.4511 21.5947 19.9064ZM6.68751 9.00011V9.00018C6.68902 10.4087 7.2492 11.759 8.24515 12.755C9.2411 13.7509 10.5915 14.3111 11.9999 14.3126H12C13.0507 14.3126 14.0778 14.001 14.9515 13.4173C15.8251 12.8335 16.506 12.0038 16.9081 11.0331C17.3102 10.0624 17.4154 8.99422 17.2104 7.96369C17.0054 6.93317 16.4995 5.98657 15.7565 5.2436C15.0135 4.50064 14.067 3.99467 13.0364 3.78969C12.0059 3.5847 10.9377 3.68991 9.967 4.092C8.99627 4.49409 8.16657 5.17501 7.58283 6.04864C6.99908 6.92228 6.68751 7.9494 6.68751 9.00011Z" fill="#D8C3AF" stroke="#D8C3AF" stroke-width="0.125"/>
</svg>
